G04 #@! TF.FileFunction,Legend,Top*
%FSLAX46Y46*%
G04 Gerber Fmt 4.6, Leading zero omitted, Abs format (unit mm)*
G04 Created by KiCad (PCBNEW 4.0.7) date 11/17/20 22:45:57*
%MOMM*%
%LPD*%
G01*
G04 APERTURE LIST*
%ADD10C,0.100000*%
%ADD11C,0.095250*%
%ADD12C,0.121000*%
%ADD13C,0.150000*%
%ADD14C,0.120000*%
%ADD15C,0.200000*%
%ADD16C,0.127000*%
%ADD17C,0.073800*%
%ADD18C,0.099200*%
G04 APERTURE END LIST*
D10*
D11*
X146528972Y-187370357D02*
X146528972Y-187642500D01*
X146510830Y-187696929D01*
X146474544Y-187733214D01*
X146420115Y-187751357D01*
X146383830Y-187751357D01*
X146873687Y-187497357D02*
X146873687Y-187751357D01*
X146710401Y-187497357D02*
X146710401Y-187696929D01*
X146728544Y-187733214D01*
X146764830Y-187751357D01*
X146819258Y-187751357D01*
X146855544Y-187733214D01*
X146873687Y-187715071D01*
X147055115Y-187751357D02*
X147055115Y-187497357D01*
X147055115Y-187533643D02*
X147073258Y-187515500D01*
X147109544Y-187497357D01*
X147163972Y-187497357D01*
X147200258Y-187515500D01*
X147218401Y-187551786D01*
X147218401Y-187751357D01*
X147218401Y-187551786D02*
X147236544Y-187515500D01*
X147272830Y-187497357D01*
X147327258Y-187497357D01*
X147363544Y-187515500D01*
X147381687Y-187551786D01*
X147381687Y-187751357D01*
X147563115Y-187497357D02*
X147563115Y-187878357D01*
X147563115Y-187515500D02*
X147599401Y-187497357D01*
X147671972Y-187497357D01*
X147708258Y-187515500D01*
X147726401Y-187533643D01*
X147744544Y-187569929D01*
X147744544Y-187678786D01*
X147726401Y-187715071D01*
X147708258Y-187733214D01*
X147671972Y-187751357D01*
X147599401Y-187751357D01*
X147563115Y-187733214D01*
X148052972Y-187733214D02*
X148016686Y-187751357D01*
X147944115Y-187751357D01*
X147907829Y-187733214D01*
X147889686Y-187696929D01*
X147889686Y-187551786D01*
X147907829Y-187515500D01*
X147944115Y-187497357D01*
X148016686Y-187497357D01*
X148052972Y-187515500D01*
X148071115Y-187551786D01*
X148071115Y-187588071D01*
X147889686Y-187624357D01*
X148234400Y-187751357D02*
X148234400Y-187497357D01*
X148234400Y-187569929D02*
X148252543Y-187533643D01*
X148270686Y-187515500D01*
X148306972Y-187497357D01*
X148343257Y-187497357D01*
X148452114Y-187733214D02*
X148488400Y-187751357D01*
X148560972Y-187751357D01*
X148597257Y-187733214D01*
X148615400Y-187696929D01*
X148615400Y-187678786D01*
X148597257Y-187642500D01*
X148560972Y-187624357D01*
X148506543Y-187624357D01*
X148470257Y-187606214D01*
X148452114Y-187569929D01*
X148452114Y-187551786D01*
X148470257Y-187515500D01*
X148506543Y-187497357D01*
X148560972Y-187497357D01*
X148597257Y-187515500D01*
X148833115Y-187751357D02*
X148796829Y-187733214D01*
X148778686Y-187715071D01*
X148760543Y-187678786D01*
X148760543Y-187569929D01*
X148778686Y-187533643D01*
X148796829Y-187515500D01*
X148833115Y-187497357D01*
X148887543Y-187497357D01*
X148923829Y-187515500D01*
X148941972Y-187533643D01*
X148960115Y-187569929D01*
X148960115Y-187678786D01*
X148941972Y-187715071D01*
X148923829Y-187733214D01*
X148887543Y-187751357D01*
X148833115Y-187751357D01*
X149177829Y-187751357D02*
X149141543Y-187733214D01*
X149123400Y-187696929D01*
X149123400Y-187370357D01*
X149486257Y-187751357D02*
X149486257Y-187370357D01*
X149486257Y-187733214D02*
X149449971Y-187751357D01*
X149377400Y-187751357D01*
X149341114Y-187733214D01*
X149322971Y-187715071D01*
X149304828Y-187678786D01*
X149304828Y-187569929D01*
X149322971Y-187533643D01*
X149341114Y-187515500D01*
X149377400Y-187497357D01*
X149449971Y-187497357D01*
X149486257Y-187515500D01*
X149812828Y-187733214D02*
X149776542Y-187751357D01*
X149703971Y-187751357D01*
X149667685Y-187733214D01*
X149649542Y-187696929D01*
X149649542Y-187551786D01*
X149667685Y-187515500D01*
X149703971Y-187497357D01*
X149776542Y-187497357D01*
X149812828Y-187515500D01*
X149830971Y-187551786D01*
X149830971Y-187588071D01*
X149649542Y-187624357D01*
X149994256Y-187751357D02*
X149994256Y-187497357D01*
X149994256Y-187569929D02*
X150012399Y-187533643D01*
X150030542Y-187515500D01*
X150066828Y-187497357D01*
X150103113Y-187497357D01*
X146113500Y-173982743D02*
X146113500Y-173801314D01*
X146222357Y-174019028D02*
X145841357Y-173892028D01*
X146222357Y-173765028D01*
X145841357Y-173456600D02*
X145841357Y-173638029D01*
X146022786Y-173656172D01*
X146004643Y-173638029D01*
X145986500Y-173601743D01*
X145986500Y-173511029D01*
X146004643Y-173474743D01*
X146022786Y-173456600D01*
X146059071Y-173438457D01*
X146149786Y-173438457D01*
X146186071Y-173456600D01*
X146204214Y-173474743D01*
X146222357Y-173511029D01*
X146222357Y-173601743D01*
X146204214Y-173638029D01*
X146186071Y-173656172D01*
X146138900Y-176090943D02*
X146138900Y-175909514D01*
X146247757Y-176127228D02*
X145866757Y-176000228D01*
X146247757Y-175873228D01*
X145993757Y-175582943D02*
X146247757Y-175582943D01*
X145848614Y-175673657D02*
X146120757Y-175764372D01*
X146120757Y-175528514D01*
X146011900Y-184472943D02*
X146011900Y-184291514D01*
X146120757Y-184509228D02*
X145739757Y-184382228D01*
X146120757Y-184255228D01*
X145739757Y-184164514D02*
X145739757Y-183910514D01*
X146120757Y-184073800D01*
X146113500Y-186657343D02*
X146113500Y-186475914D01*
X146222357Y-186693628D02*
X145841357Y-186566628D01*
X146222357Y-186439628D01*
X145841357Y-186149343D02*
X145841357Y-186221914D01*
X145859500Y-186258200D01*
X145877643Y-186276343D01*
X145932071Y-186312629D01*
X146004643Y-186330772D01*
X146149786Y-186330772D01*
X146186071Y-186312629D01*
X146204214Y-186294486D01*
X146222357Y-186258200D01*
X146222357Y-186185629D01*
X146204214Y-186149343D01*
X146186071Y-186131200D01*
X146149786Y-186113057D01*
X146059071Y-186113057D01*
X146022786Y-186131200D01*
X146004643Y-186149343D01*
X145986500Y-186185629D01*
X145986500Y-186258200D01*
X146004643Y-186294486D01*
X146022786Y-186312629D01*
X146059071Y-186330772D01*
X172333557Y-185728429D02*
X171952557Y-185728429D01*
X171952557Y-185637714D01*
X171970700Y-185583286D01*
X172006986Y-185547000D01*
X172043271Y-185528857D01*
X172115843Y-185510714D01*
X172170271Y-185510714D01*
X172242843Y-185528857D01*
X172279129Y-185547000D01*
X172315414Y-185583286D01*
X172333557Y-185637714D01*
X172333557Y-185728429D01*
X171952557Y-185401857D02*
X171952557Y-185184143D01*
X172333557Y-185293000D02*
X171952557Y-185293000D01*
X172333557Y-184839428D02*
X172152129Y-184966428D01*
X172333557Y-185057143D02*
X171952557Y-185057143D01*
X171952557Y-184912000D01*
X171970700Y-184875714D01*
X171988843Y-184857571D01*
X172025129Y-184839428D01*
X172079557Y-184839428D01*
X172115843Y-184857571D01*
X172133986Y-184875714D01*
X172152129Y-184912000D01*
X172152129Y-185057143D01*
X171952557Y-183573057D02*
X171952557Y-183355343D01*
X172333557Y-183464200D02*
X171952557Y-183464200D01*
X171952557Y-183264628D02*
X172333557Y-183010628D01*
X171952557Y-183010628D02*
X172333557Y-183264628D01*
X171952557Y-182792914D02*
X171952557Y-182720343D01*
X171970700Y-182684057D01*
X172006986Y-182647771D01*
X172079557Y-182629629D01*
X172206557Y-182629629D01*
X172279129Y-182647771D01*
X172315414Y-182684057D01*
X172333557Y-182720343D01*
X172333557Y-182792914D01*
X172315414Y-182829200D01*
X172279129Y-182865486D01*
X172206557Y-182883629D01*
X172079557Y-182883629D01*
X172006986Y-182865486D01*
X171970700Y-182829200D01*
X171952557Y-182792914D01*
X172333557Y-181180014D02*
X172152129Y-181307014D01*
X172333557Y-181397729D02*
X171952557Y-181397729D01*
X171952557Y-181252586D01*
X171970700Y-181216300D01*
X171988843Y-181198157D01*
X172025129Y-181180014D01*
X172079557Y-181180014D01*
X172115843Y-181198157D01*
X172133986Y-181216300D01*
X172152129Y-181252586D01*
X172152129Y-181397729D01*
X171952557Y-181053014D02*
X172333557Y-180799014D01*
X171952557Y-180799014D02*
X172333557Y-181053014D01*
X172333557Y-180653872D02*
X171952557Y-180653872D01*
X172104957Y-179298599D02*
X172485957Y-179171599D01*
X172104957Y-179044599D01*
X172449671Y-178699885D02*
X172467814Y-178718028D01*
X172485957Y-178772457D01*
X172485957Y-178808743D01*
X172467814Y-178863171D01*
X172431529Y-178899457D01*
X172395243Y-178917600D01*
X172322671Y-178935743D01*
X172268243Y-178935743D01*
X172195671Y-178917600D01*
X172159386Y-178899457D01*
X172123100Y-178863171D01*
X172104957Y-178808743D01*
X172104957Y-178772457D01*
X172123100Y-178718028D01*
X172141243Y-178699885D01*
X172449671Y-178318885D02*
X172467814Y-178337028D01*
X172485957Y-178391457D01*
X172485957Y-178427743D01*
X172467814Y-178482171D01*
X172431529Y-178518457D01*
X172395243Y-178536600D01*
X172322671Y-178554743D01*
X172268243Y-178554743D01*
X172195671Y-178536600D01*
X172159386Y-178518457D01*
X172123100Y-178482171D01*
X172104957Y-178427743D01*
X172104957Y-178391457D01*
X172123100Y-178337028D01*
X172141243Y-178318885D01*
X172021500Y-177404485D02*
X172003357Y-177440771D01*
X172003357Y-177495200D01*
X172021500Y-177549628D01*
X172057786Y-177585914D01*
X172094071Y-177604057D01*
X172166643Y-177622200D01*
X172221071Y-177622200D01*
X172293643Y-177604057D01*
X172329929Y-177585914D01*
X172366214Y-177549628D01*
X172384357Y-177495200D01*
X172384357Y-177458914D01*
X172366214Y-177404485D01*
X172348071Y-177386342D01*
X172221071Y-177386342D01*
X172221071Y-177458914D01*
X172384357Y-177223057D02*
X172003357Y-177223057D01*
X172384357Y-177005342D01*
X172003357Y-177005342D01*
X172384357Y-176823914D02*
X172003357Y-176823914D01*
X172003357Y-176733199D01*
X172021500Y-176678771D01*
X172057786Y-176642485D01*
X172094071Y-176624342D01*
X172166643Y-176606199D01*
X172221071Y-176606199D01*
X172293643Y-176624342D01*
X172329929Y-176642485D01*
X172366214Y-176678771D01*
X172384357Y-176733199D01*
X172384357Y-176823914D01*
X171945300Y-175423285D02*
X171927157Y-175459571D01*
X171927157Y-175514000D01*
X171945300Y-175568428D01*
X171981586Y-175604714D01*
X172017871Y-175622857D01*
X172090443Y-175641000D01*
X172144871Y-175641000D01*
X172217443Y-175622857D01*
X172253729Y-175604714D01*
X172290014Y-175568428D01*
X172308157Y-175514000D01*
X172308157Y-175477714D01*
X172290014Y-175423285D01*
X172271871Y-175405142D01*
X172144871Y-175405142D01*
X172144871Y-175477714D01*
X172308157Y-175241857D02*
X171927157Y-175241857D01*
X172308157Y-175024142D01*
X171927157Y-175024142D01*
X172308157Y-174842714D02*
X171927157Y-174842714D01*
X171927157Y-174751999D01*
X171945300Y-174697571D01*
X171981586Y-174661285D01*
X172017871Y-174643142D01*
X172090443Y-174624999D01*
X172144871Y-174624999D01*
X172217443Y-174643142D01*
X172253729Y-174661285D01*
X172290014Y-174697571D01*
X172308157Y-174751999D01*
X172308157Y-174842714D01*
X170479356Y-171277643D02*
X170606356Y-171459071D01*
X170697071Y-171277643D02*
X170697071Y-171658643D01*
X170551928Y-171658643D01*
X170515642Y-171640500D01*
X170497499Y-171622357D01*
X170479356Y-171586071D01*
X170479356Y-171531643D01*
X170497499Y-171495357D01*
X170515642Y-171477214D01*
X170551928Y-171459071D01*
X170697071Y-171459071D01*
X170316071Y-171477214D02*
X170189071Y-171477214D01*
X170134642Y-171277643D02*
X170316071Y-171277643D01*
X170316071Y-171658643D01*
X170134642Y-171658643D01*
X169989500Y-171295786D02*
X169935071Y-171277643D01*
X169844357Y-171277643D01*
X169808071Y-171295786D01*
X169789928Y-171313929D01*
X169771785Y-171350214D01*
X169771785Y-171386500D01*
X169789928Y-171422786D01*
X169808071Y-171440929D01*
X169844357Y-171459071D01*
X169916928Y-171477214D01*
X169953214Y-171495357D01*
X169971357Y-171513500D01*
X169989500Y-171549786D01*
X169989500Y-171586071D01*
X169971357Y-171622357D01*
X169953214Y-171640500D01*
X169916928Y-171658643D01*
X169826214Y-171658643D01*
X169771785Y-171640500D01*
X169608500Y-171477214D02*
X169481500Y-171477214D01*
X169427071Y-171277643D02*
X169608500Y-171277643D01*
X169608500Y-171658643D01*
X169427071Y-171658643D01*
X169318214Y-171658643D02*
X169100500Y-171658643D01*
X169209357Y-171277643D02*
X169209357Y-171658643D01*
X167946614Y-171252243D02*
X168073614Y-171433671D01*
X168164329Y-171252243D02*
X168164329Y-171633243D01*
X168019186Y-171633243D01*
X167982900Y-171615100D01*
X167964757Y-171596957D01*
X167946614Y-171560671D01*
X167946614Y-171506243D01*
X167964757Y-171469957D01*
X167982900Y-171451814D01*
X168019186Y-171433671D01*
X168164329Y-171433671D01*
X167819614Y-171633243D02*
X167565614Y-171252243D01*
X167565614Y-171633243D02*
X167819614Y-171252243D01*
X167420472Y-171252243D02*
X167420472Y-171633243D01*
X166257514Y-171607843D02*
X166039800Y-171607843D01*
X166148657Y-171226843D02*
X166148657Y-171607843D01*
X165949085Y-171607843D02*
X165695085Y-171226843D01*
X165695085Y-171607843D02*
X165949085Y-171226843D01*
X165477371Y-171607843D02*
X165441086Y-171607843D01*
X165404800Y-171589700D01*
X165386657Y-171571557D01*
X165368514Y-171535271D01*
X165350371Y-171462700D01*
X165350371Y-171371986D01*
X165368514Y-171299414D01*
X165386657Y-171263129D01*
X165404800Y-171244986D01*
X165441086Y-171226843D01*
X165477371Y-171226843D01*
X165513657Y-171244986D01*
X165531800Y-171263129D01*
X165549943Y-171299414D01*
X165568086Y-171371986D01*
X165568086Y-171462700D01*
X165549943Y-171535271D01*
X165531800Y-171571557D01*
X165513657Y-171589700D01*
X165477371Y-171607843D01*
X164171085Y-171564300D02*
X164207371Y-171582443D01*
X164261800Y-171582443D01*
X164316228Y-171564300D01*
X164352514Y-171528014D01*
X164370657Y-171491729D01*
X164388800Y-171419157D01*
X164388800Y-171364729D01*
X164370657Y-171292157D01*
X164352514Y-171255871D01*
X164316228Y-171219586D01*
X164261800Y-171201443D01*
X164225514Y-171201443D01*
X164171085Y-171219586D01*
X164152942Y-171237729D01*
X164152942Y-171364729D01*
X164225514Y-171364729D01*
X163989657Y-171201443D02*
X163989657Y-171582443D01*
X163771942Y-171201443D01*
X163771942Y-171582443D01*
X163590514Y-171201443D02*
X163590514Y-171582443D01*
X163499799Y-171582443D01*
X163445371Y-171564300D01*
X163409085Y-171528014D01*
X163390942Y-171491729D01*
X163372799Y-171419157D01*
X163372799Y-171364729D01*
X163390942Y-171292157D01*
X163409085Y-171255871D01*
X163445371Y-171219586D01*
X163499799Y-171201443D01*
X163590514Y-171201443D01*
X162130014Y-171201443D02*
X162130014Y-171582443D01*
X162039299Y-171582443D01*
X161984871Y-171564300D01*
X161948585Y-171528014D01*
X161930442Y-171491729D01*
X161912299Y-171419157D01*
X161912299Y-171364729D01*
X161930442Y-171292157D01*
X161948585Y-171255871D01*
X161984871Y-171219586D01*
X162039299Y-171201443D01*
X162130014Y-171201443D01*
X161767157Y-171546157D02*
X161749014Y-171564300D01*
X161712728Y-171582443D01*
X161622014Y-171582443D01*
X161585728Y-171564300D01*
X161567585Y-171546157D01*
X161549442Y-171509871D01*
X161549442Y-171473586D01*
X161567585Y-171419157D01*
X161785299Y-171201443D01*
X161549442Y-171201443D01*
X160072614Y-171176043D02*
X160072614Y-171557043D01*
X159981899Y-171557043D01*
X159927471Y-171538900D01*
X159891185Y-171502614D01*
X159873042Y-171466329D01*
X159854899Y-171393757D01*
X159854899Y-171339329D01*
X159873042Y-171266757D01*
X159891185Y-171230471D01*
X159927471Y-171194186D01*
X159981899Y-171176043D01*
X160072614Y-171176043D01*
X159727899Y-171557043D02*
X159492042Y-171557043D01*
X159619042Y-171411900D01*
X159564614Y-171411900D01*
X159528328Y-171393757D01*
X159510185Y-171375614D01*
X159492042Y-171339329D01*
X159492042Y-171248614D01*
X159510185Y-171212329D01*
X159528328Y-171194186D01*
X159564614Y-171176043D01*
X159673471Y-171176043D01*
X159709757Y-171194186D01*
X159727899Y-171212329D01*
X158167614Y-171200294D02*
X158167614Y-171583834D01*
X158076899Y-171583834D01*
X158022471Y-171565570D01*
X157986185Y-171529042D01*
X157968042Y-171492515D01*
X157949899Y-171419460D01*
X157949899Y-171364668D01*
X157968042Y-171291613D01*
X157986185Y-171255085D01*
X158022471Y-171218558D01*
X158076899Y-171200294D01*
X158167614Y-171200294D01*
X157623328Y-171455987D02*
X157623328Y-171200294D01*
X157714042Y-171602098D02*
X157804757Y-171328140D01*
X157568899Y-171328140D01*
X156211814Y-171150643D02*
X156211814Y-171531643D01*
X156121099Y-171531643D01*
X156066671Y-171513500D01*
X156030385Y-171477214D01*
X156012242Y-171440929D01*
X155994099Y-171368357D01*
X155994099Y-171313929D01*
X156012242Y-171241357D01*
X156030385Y-171205071D01*
X156066671Y-171168786D01*
X156121099Y-171150643D01*
X156211814Y-171150643D01*
X155649385Y-171531643D02*
X155830814Y-171531643D01*
X155848957Y-171350214D01*
X155830814Y-171368357D01*
X155794528Y-171386500D01*
X155703814Y-171386500D01*
X155667528Y-171368357D01*
X155649385Y-171350214D01*
X155631242Y-171313929D01*
X155631242Y-171223214D01*
X155649385Y-171186929D01*
X155667528Y-171168786D01*
X155703814Y-171150643D01*
X155794528Y-171150643D01*
X155830814Y-171168786D01*
X155848957Y-171186929D01*
X154129014Y-171176043D02*
X154129014Y-171557043D01*
X154038299Y-171557043D01*
X153983871Y-171538900D01*
X153947585Y-171502614D01*
X153929442Y-171466329D01*
X153911299Y-171393757D01*
X153911299Y-171339329D01*
X153929442Y-171266757D01*
X153947585Y-171230471D01*
X153983871Y-171194186D01*
X154038299Y-171176043D01*
X154129014Y-171176043D01*
X153584728Y-171557043D02*
X153657299Y-171557043D01*
X153693585Y-171538900D01*
X153711728Y-171520757D01*
X153748014Y-171466329D01*
X153766157Y-171393757D01*
X153766157Y-171248614D01*
X153748014Y-171212329D01*
X153729871Y-171194186D01*
X153693585Y-171176043D01*
X153621014Y-171176043D01*
X153584728Y-171194186D01*
X153566585Y-171212329D01*
X153548442Y-171248614D01*
X153548442Y-171339329D01*
X153566585Y-171375614D01*
X153584728Y-171393757D01*
X153621014Y-171411900D01*
X153693585Y-171411900D01*
X153729871Y-171393757D01*
X153748014Y-171375614D01*
X153766157Y-171339329D01*
X152097014Y-171277643D02*
X152097014Y-171658643D01*
X152006299Y-171658643D01*
X151951871Y-171640500D01*
X151915585Y-171604214D01*
X151897442Y-171567929D01*
X151879299Y-171495357D01*
X151879299Y-171440929D01*
X151897442Y-171368357D01*
X151915585Y-171332071D01*
X151951871Y-171295786D01*
X152006299Y-171277643D01*
X152097014Y-171277643D01*
X151752299Y-171658643D02*
X151498299Y-171658643D01*
X151661585Y-171277643D01*
X150192014Y-171379243D02*
X150192014Y-171760243D01*
X150101299Y-171760243D01*
X150046871Y-171742100D01*
X150010585Y-171705814D01*
X149992442Y-171669529D01*
X149974299Y-171596957D01*
X149974299Y-171542529D01*
X149992442Y-171469957D01*
X150010585Y-171433671D01*
X150046871Y-171397386D01*
X150101299Y-171379243D01*
X150192014Y-171379243D01*
X149756585Y-171596957D02*
X149792871Y-171615100D01*
X149811014Y-171633243D01*
X149829157Y-171669529D01*
X149829157Y-171687671D01*
X149811014Y-171723957D01*
X149792871Y-171742100D01*
X149756585Y-171760243D01*
X149684014Y-171760243D01*
X149647728Y-171742100D01*
X149629585Y-171723957D01*
X149611442Y-171687671D01*
X149611442Y-171669529D01*
X149629585Y-171633243D01*
X149647728Y-171615100D01*
X149684014Y-171596957D01*
X149756585Y-171596957D01*
X149792871Y-171578814D01*
X149811014Y-171560671D01*
X149829157Y-171524386D01*
X149829157Y-171451814D01*
X149811014Y-171415529D01*
X149792871Y-171397386D01*
X149756585Y-171379243D01*
X149684014Y-171379243D01*
X149647728Y-171397386D01*
X149629585Y-171415529D01*
X149611442Y-171451814D01*
X149611442Y-171524386D01*
X149629585Y-171560671D01*
X149647728Y-171578814D01*
X149684014Y-171596957D01*
X148109214Y-171455443D02*
X148109214Y-171836443D01*
X148018499Y-171836443D01*
X147964071Y-171818300D01*
X147927785Y-171782014D01*
X147909642Y-171745729D01*
X147891499Y-171673157D01*
X147891499Y-171618729D01*
X147909642Y-171546157D01*
X147927785Y-171509871D01*
X147964071Y-171473586D01*
X148018499Y-171455443D01*
X148109214Y-171455443D01*
X147710071Y-171455443D02*
X147637499Y-171455443D01*
X147601214Y-171473586D01*
X147583071Y-171491729D01*
X147546785Y-171546157D01*
X147528642Y-171618729D01*
X147528642Y-171763871D01*
X147546785Y-171800157D01*
X147564928Y-171818300D01*
X147601214Y-171836443D01*
X147673785Y-171836443D01*
X147710071Y-171818300D01*
X147728214Y-171800157D01*
X147746357Y-171763871D01*
X147746357Y-171673157D01*
X147728214Y-171636871D01*
X147710071Y-171618729D01*
X147673785Y-171600586D01*
X147601214Y-171600586D01*
X147564928Y-171618729D01*
X147546785Y-171636871D01*
X147528642Y-171673157D01*
X169612129Y-189148357D02*
X169485129Y-188966929D01*
X169394414Y-189148357D02*
X169394414Y-188767357D01*
X169539557Y-188767357D01*
X169575843Y-188785500D01*
X169593986Y-188803643D01*
X169612129Y-188839929D01*
X169612129Y-188894357D01*
X169593986Y-188930643D01*
X169575843Y-188948786D01*
X169539557Y-188966929D01*
X169394414Y-188966929D01*
X169757271Y-189039500D02*
X169938700Y-189039500D01*
X169720986Y-189148357D02*
X169847986Y-188767357D01*
X169974986Y-189148357D01*
X170065700Y-188767357D02*
X170156414Y-189148357D01*
X170228985Y-188876214D01*
X170301557Y-189148357D01*
X170392271Y-188767357D01*
X167315244Y-189122957D02*
X167188244Y-188941529D01*
X167097529Y-189122957D02*
X167097529Y-188741957D01*
X167242672Y-188741957D01*
X167278958Y-188760100D01*
X167297101Y-188778243D01*
X167315244Y-188814529D01*
X167315244Y-188868957D01*
X167297101Y-188905243D01*
X167278958Y-188923386D01*
X167242672Y-188941529D01*
X167097529Y-188941529D01*
X167478529Y-188923386D02*
X167605529Y-188923386D01*
X167659958Y-189122957D02*
X167478529Y-189122957D01*
X167478529Y-188741957D01*
X167659958Y-188741957D01*
X167805100Y-189104814D02*
X167859529Y-189122957D01*
X167950243Y-189122957D01*
X167986529Y-189104814D01*
X168004672Y-189086671D01*
X168022815Y-189050386D01*
X168022815Y-189014100D01*
X168004672Y-188977814D01*
X167986529Y-188959671D01*
X167950243Y-188941529D01*
X167877672Y-188923386D01*
X167841386Y-188905243D01*
X167823243Y-188887100D01*
X167805100Y-188850814D01*
X167805100Y-188814529D01*
X167823243Y-188778243D01*
X167841386Y-188760100D01*
X167877672Y-188741957D01*
X167968386Y-188741957D01*
X168022815Y-188760100D01*
X168186100Y-188923386D02*
X168313100Y-188923386D01*
X168367529Y-189122957D02*
X168186100Y-189122957D01*
X168186100Y-188741957D01*
X168367529Y-188741957D01*
X168476386Y-188741957D02*
X168694100Y-188741957D01*
X168585243Y-189122957D02*
X168585243Y-188741957D01*
X165488257Y-188861700D02*
X165669686Y-188861700D01*
X165451972Y-188970557D02*
X165578972Y-188589557D01*
X165705972Y-188970557D01*
X165796686Y-188589557D02*
X166032543Y-188589557D01*
X165905543Y-188734700D01*
X165959971Y-188734700D01*
X165996257Y-188752843D01*
X166014400Y-188770986D01*
X166032543Y-188807271D01*
X166032543Y-188897986D01*
X166014400Y-188934271D01*
X165996257Y-188952414D01*
X165959971Y-188970557D01*
X165851114Y-188970557D01*
X165814828Y-188952414D01*
X165796686Y-188934271D01*
X163557857Y-188810900D02*
X163739286Y-188810900D01*
X163521572Y-188919757D02*
X163648572Y-188538757D01*
X163775572Y-188919757D01*
X163884428Y-188575043D02*
X163902571Y-188556900D01*
X163938857Y-188538757D01*
X164029571Y-188538757D01*
X164065857Y-188556900D01*
X164084000Y-188575043D01*
X164102143Y-188611329D01*
X164102143Y-188647614D01*
X164084000Y-188702043D01*
X163866286Y-188919757D01*
X164102143Y-188919757D01*
X161576657Y-188785500D02*
X161758086Y-188785500D01*
X161540372Y-188894357D02*
X161667372Y-188513357D01*
X161794372Y-188894357D01*
X162120943Y-188894357D02*
X161903228Y-188894357D01*
X162012086Y-188894357D02*
X162012086Y-188513357D01*
X161975800Y-188567786D01*
X161939514Y-188604071D01*
X161903228Y-188622214D01*
X159468457Y-188810900D02*
X159649886Y-188810900D01*
X159432172Y-188919757D02*
X159559172Y-188538757D01*
X159686172Y-188919757D01*
X159885743Y-188538757D02*
X159922028Y-188538757D01*
X159958314Y-188556900D01*
X159976457Y-188575043D01*
X159994600Y-188611329D01*
X160012743Y-188683900D01*
X160012743Y-188774614D01*
X159994600Y-188847186D01*
X159976457Y-188883471D01*
X159958314Y-188901614D01*
X159922028Y-188919757D01*
X159885743Y-188919757D01*
X159849457Y-188901614D01*
X159831314Y-188883471D01*
X159813171Y-188847186D01*
X159795028Y-188774614D01*
X159795028Y-188683900D01*
X159813171Y-188611329D01*
X159831314Y-188575043D01*
X159849457Y-188556900D01*
X159885743Y-188538757D01*
X157723115Y-188607700D02*
X157686829Y-188589557D01*
X157632400Y-188589557D01*
X157577972Y-188607700D01*
X157541686Y-188643986D01*
X157523543Y-188680271D01*
X157505400Y-188752843D01*
X157505400Y-188807271D01*
X157523543Y-188879843D01*
X157541686Y-188916129D01*
X157577972Y-188952414D01*
X157632400Y-188970557D01*
X157668686Y-188970557D01*
X157723115Y-188952414D01*
X157741258Y-188934271D01*
X157741258Y-188807271D01*
X157668686Y-188807271D01*
X157904543Y-188970557D02*
X157904543Y-188589557D01*
X158122258Y-188970557D01*
X158122258Y-188589557D01*
X158303686Y-188970557D02*
X158303686Y-188589557D01*
X158394401Y-188589557D01*
X158448829Y-188607700D01*
X158485115Y-188643986D01*
X158503258Y-188680271D01*
X158521401Y-188752843D01*
X158521401Y-188807271D01*
X158503258Y-188879843D01*
X158485115Y-188916129D01*
X158448829Y-188952414D01*
X158394401Y-188970557D01*
X158303686Y-188970557D01*
X155321001Y-188437157D02*
X155448001Y-188818157D01*
X155575001Y-188437157D01*
X155919715Y-188781871D02*
X155901572Y-188800014D01*
X155847143Y-188818157D01*
X155810857Y-188818157D01*
X155756429Y-188800014D01*
X155720143Y-188763729D01*
X155702000Y-188727443D01*
X155683857Y-188654871D01*
X155683857Y-188600443D01*
X155702000Y-188527871D01*
X155720143Y-188491586D01*
X155756429Y-188455300D01*
X155810857Y-188437157D01*
X155847143Y-188437157D01*
X155901572Y-188455300D01*
X155919715Y-188473443D01*
X156300715Y-188781871D02*
X156282572Y-188800014D01*
X156228143Y-188818157D01*
X156191857Y-188818157D01*
X156137429Y-188800014D01*
X156101143Y-188763729D01*
X156083000Y-188727443D01*
X156064857Y-188654871D01*
X156064857Y-188600443D01*
X156083000Y-188527871D01*
X156101143Y-188491586D01*
X156137429Y-188455300D01*
X156191857Y-188437157D01*
X156228143Y-188437157D01*
X156282572Y-188455300D01*
X156300715Y-188473443D01*
X153535743Y-188876214D02*
X153590172Y-188894357D01*
X153680886Y-188894357D01*
X153717172Y-188876214D01*
X153735315Y-188858071D01*
X153753458Y-188821786D01*
X153753458Y-188785500D01*
X153735315Y-188749214D01*
X153717172Y-188731071D01*
X153680886Y-188712929D01*
X153608315Y-188694786D01*
X153572029Y-188676643D01*
X153553886Y-188658500D01*
X153535743Y-188622214D01*
X153535743Y-188585929D01*
X153553886Y-188549643D01*
X153572029Y-188531500D01*
X153608315Y-188513357D01*
X153699029Y-188513357D01*
X153753458Y-188531500D01*
X154134458Y-188858071D02*
X154116315Y-188876214D01*
X154061886Y-188894357D01*
X154025600Y-188894357D01*
X153971172Y-188876214D01*
X153934886Y-188839929D01*
X153916743Y-188803643D01*
X153898600Y-188731071D01*
X153898600Y-188676643D01*
X153916743Y-188604071D01*
X153934886Y-188567786D01*
X153971172Y-188531500D01*
X154025600Y-188513357D01*
X154061886Y-188513357D01*
X154116315Y-188531500D01*
X154134458Y-188549643D01*
X154297743Y-188894357D02*
X154297743Y-188513357D01*
X154515458Y-188894357D02*
X154352172Y-188676643D01*
X154515458Y-188513357D02*
X154297743Y-188731071D01*
X151242485Y-188894357D02*
X151242485Y-188513357D01*
X151369485Y-188785500D01*
X151496485Y-188513357D01*
X151496485Y-188894357D01*
X151677914Y-188894357D02*
X151677914Y-188513357D01*
X151841200Y-188876214D02*
X151895629Y-188894357D01*
X151986343Y-188894357D01*
X152022629Y-188876214D01*
X152040772Y-188858071D01*
X152058915Y-188821786D01*
X152058915Y-188785500D01*
X152040772Y-188749214D01*
X152022629Y-188731071D01*
X151986343Y-188712929D01*
X151913772Y-188694786D01*
X151877486Y-188676643D01*
X151859343Y-188658500D01*
X151841200Y-188622214D01*
X151841200Y-188585929D01*
X151859343Y-188549643D01*
X151877486Y-188531500D01*
X151913772Y-188513357D01*
X152004486Y-188513357D01*
X152058915Y-188531500D01*
X152294772Y-188513357D02*
X152367343Y-188513357D01*
X152403629Y-188531500D01*
X152439915Y-188567786D01*
X152458057Y-188640357D01*
X152458057Y-188767357D01*
X152439915Y-188839929D01*
X152403629Y-188876214D01*
X152367343Y-188894357D01*
X152294772Y-188894357D01*
X152258486Y-188876214D01*
X152222200Y-188839929D01*
X152204057Y-188767357D01*
X152204057Y-188640357D01*
X152222200Y-188567786D01*
X152258486Y-188531500D01*
X152294772Y-188513357D01*
X147289157Y-188868957D02*
X147289157Y-188487957D01*
X147379872Y-188487957D01*
X147434300Y-188506100D01*
X147470586Y-188542386D01*
X147488729Y-188578671D01*
X147506872Y-188651243D01*
X147506872Y-188705671D01*
X147488729Y-188778243D01*
X147470586Y-188814529D01*
X147434300Y-188850814D01*
X147379872Y-188868957D01*
X147289157Y-188868957D01*
X147869729Y-188868957D02*
X147652014Y-188868957D01*
X147760872Y-188868957D02*
X147760872Y-188487957D01*
X147724586Y-188542386D01*
X147688300Y-188578671D01*
X147652014Y-188596814D01*
X148105586Y-188487957D02*
X148141871Y-188487957D01*
X148178157Y-188506100D01*
X148196300Y-188524243D01*
X148214443Y-188560529D01*
X148232586Y-188633100D01*
X148232586Y-188723814D01*
X148214443Y-188796386D01*
X148196300Y-188832671D01*
X148178157Y-188850814D01*
X148141871Y-188868957D01*
X148105586Y-188868957D01*
X148069300Y-188850814D01*
X148051157Y-188832671D01*
X148033014Y-188796386D01*
X148014871Y-188723814D01*
X148014871Y-188633100D01*
X148033014Y-188560529D01*
X148051157Y-188524243D01*
X148069300Y-188506100D01*
X148105586Y-188487957D01*
X149261285Y-188818157D02*
X149261285Y-188437157D01*
X149388285Y-188709300D01*
X149515285Y-188437157D01*
X149515285Y-188818157D01*
X149769286Y-188437157D02*
X149841857Y-188437157D01*
X149878143Y-188455300D01*
X149914429Y-188491586D01*
X149932571Y-188564157D01*
X149932571Y-188691157D01*
X149914429Y-188763729D01*
X149878143Y-188800014D01*
X149841857Y-188818157D01*
X149769286Y-188818157D01*
X149733000Y-188800014D01*
X149696714Y-188763729D01*
X149678571Y-188691157D01*
X149678571Y-188564157D01*
X149696714Y-188491586D01*
X149733000Y-188455300D01*
X149769286Y-188437157D01*
X150077714Y-188800014D02*
X150132143Y-188818157D01*
X150222857Y-188818157D01*
X150259143Y-188800014D01*
X150277286Y-188781871D01*
X150295429Y-188745586D01*
X150295429Y-188709300D01*
X150277286Y-188673014D01*
X150259143Y-188654871D01*
X150222857Y-188636729D01*
X150150286Y-188618586D01*
X150114000Y-188600443D01*
X150095857Y-188582300D01*
X150077714Y-188546014D01*
X150077714Y-188509729D01*
X150095857Y-188473443D01*
X150114000Y-188455300D01*
X150150286Y-188437157D01*
X150241000Y-188437157D01*
X150295429Y-188455300D01*
X150458714Y-188818157D02*
X150458714Y-188437157D01*
D12*
X171016086Y-180740504D02*
X171407895Y-180740504D01*
X171453990Y-180763552D01*
X171477038Y-180786600D01*
X171500086Y-180832695D01*
X171500086Y-180901838D01*
X171477038Y-180947933D01*
X171315705Y-180740504D02*
X171338752Y-180786600D01*
X171338752Y-180878790D01*
X171315705Y-180924885D01*
X171292657Y-180947933D01*
X171246562Y-180970981D01*
X171108276Y-180970981D01*
X171062181Y-180947933D01*
X171039133Y-180924885D01*
X171016086Y-180878790D01*
X171016086Y-180786600D01*
X171039133Y-180740504D01*
X171338752Y-180510028D02*
X171016086Y-180510028D01*
X171108276Y-180510028D02*
X171062181Y-180486980D01*
X171039133Y-180463933D01*
X171016086Y-180417837D01*
X171016086Y-180371742D01*
X171315705Y-180026028D02*
X171338752Y-180072123D01*
X171338752Y-180164314D01*
X171315705Y-180210409D01*
X171269610Y-180233457D01*
X171085229Y-180233457D01*
X171039133Y-180210409D01*
X171016086Y-180164314D01*
X171016086Y-180072123D01*
X171039133Y-180026028D01*
X171085229Y-180002980D01*
X171131324Y-180002980D01*
X171177419Y-180233457D01*
X171315705Y-179611171D02*
X171338752Y-179657266D01*
X171338752Y-179749457D01*
X171315705Y-179795552D01*
X171269610Y-179818600D01*
X171085229Y-179818600D01*
X171039133Y-179795552D01*
X171016086Y-179749457D01*
X171016086Y-179657266D01*
X171039133Y-179611171D01*
X171085229Y-179588123D01*
X171131324Y-179588123D01*
X171177419Y-179818600D01*
X171016086Y-179380695D02*
X171338752Y-179380695D01*
X171062181Y-179380695D02*
X171039133Y-179357647D01*
X171016086Y-179311552D01*
X171016086Y-179242409D01*
X171039133Y-179196314D01*
X171085229Y-179173266D01*
X171338752Y-179173266D01*
X146116552Y-181689952D02*
X145793886Y-181689952D01*
X145886076Y-181689952D02*
X145839981Y-181666904D01*
X145816933Y-181643857D01*
X145793886Y-181597761D01*
X145793886Y-181551666D01*
X146093505Y-181205952D02*
X146116552Y-181252047D01*
X146116552Y-181344238D01*
X146093505Y-181390333D01*
X146047410Y-181413381D01*
X145863029Y-181413381D01*
X145816933Y-181390333D01*
X145793886Y-181344238D01*
X145793886Y-181252047D01*
X145816933Y-181205952D01*
X145863029Y-181182904D01*
X145909124Y-181182904D01*
X145955219Y-181413381D01*
X146116552Y-180768047D02*
X145632552Y-180768047D01*
X146093505Y-180768047D02*
X146116552Y-180814143D01*
X146116552Y-180906333D01*
X146093505Y-180952428D01*
X146070457Y-180975476D01*
X146024362Y-180998524D01*
X145886076Y-180998524D01*
X145839981Y-180975476D01*
X145816933Y-180952428D01*
X145793886Y-180906333D01*
X145793886Y-180814143D01*
X145816933Y-180768047D01*
X152060629Y-183100232D02*
X152060629Y-182938899D01*
X152314152Y-182901446D02*
X152314152Y-183131922D01*
X151830152Y-183071422D01*
X151830152Y-182840946D01*
X152314152Y-182694017D02*
X151991486Y-182653684D01*
X152037581Y-182659446D02*
X152014533Y-182633517D01*
X151991486Y-182584541D01*
X151991486Y-182515398D01*
X152014533Y-182472184D01*
X152060629Y-182454898D01*
X152314152Y-182486588D01*
X152060629Y-182454898D02*
X152014533Y-182426089D01*
X151991486Y-182377112D01*
X151991486Y-182307970D01*
X152014533Y-182264755D01*
X152060629Y-182247470D01*
X152314152Y-182279160D01*
X152314152Y-182048684D02*
X151991486Y-182008351D01*
X152083676Y-182019874D02*
X152037581Y-181991065D01*
X152014533Y-181965137D01*
X151991486Y-181916160D01*
X151991486Y-181870065D01*
X152314152Y-181541636D02*
X152060629Y-181509946D01*
X152014533Y-181527232D01*
X151991486Y-181570446D01*
X151991486Y-181662637D01*
X152014533Y-181711613D01*
X152291105Y-181538755D02*
X152314152Y-181587732D01*
X152314152Y-181702970D01*
X152291105Y-181746184D01*
X152245010Y-181763470D01*
X152198914Y-181757708D01*
X152152819Y-181728898D01*
X152129771Y-181679922D01*
X152129771Y-181564684D01*
X152106724Y-181515707D01*
X152314152Y-181311160D02*
X151830152Y-181250660D01*
X152314152Y-181103731D02*
X152060629Y-181072041D01*
X152014533Y-181089327D01*
X151991486Y-181132541D01*
X151991486Y-181201684D01*
X152014533Y-181250660D01*
X152037581Y-181276589D01*
X152175867Y-180510255D02*
X152175867Y-180279778D01*
X152314152Y-180573636D02*
X151830152Y-180351802D01*
X152314152Y-180250969D01*
X152314152Y-180089636D02*
X151830152Y-180029136D01*
X152129771Y-180020493D02*
X152314152Y-179905255D01*
X151991486Y-179864922D02*
X152175867Y-180072350D01*
X152291105Y-179487516D02*
X152314152Y-179536493D01*
X152314152Y-179628683D01*
X152291105Y-179671897D01*
X152268057Y-179692064D01*
X152221962Y-179709350D01*
X152083676Y-179692064D01*
X152037581Y-179663255D01*
X152014533Y-179637326D01*
X151991486Y-179588350D01*
X151991486Y-179496160D01*
X152014533Y-179452945D01*
X152337200Y-179585469D02*
X152360248Y-179542255D01*
X152406343Y-179524969D01*
X152452438Y-179553779D01*
X152475486Y-179602755D01*
X152475486Y-179671898D01*
X152314152Y-179075540D02*
X152060629Y-179043850D01*
X152014533Y-179061136D01*
X151991486Y-179104350D01*
X151991486Y-179196541D01*
X152014533Y-179245517D01*
X152291105Y-179072659D02*
X152314152Y-179121636D01*
X152314152Y-179236874D01*
X152291105Y-179280088D01*
X152245010Y-179297374D01*
X152198914Y-179291612D01*
X152152819Y-179262802D01*
X152129771Y-179213826D01*
X152129771Y-179098588D01*
X152106724Y-179049611D01*
X152314152Y-178775921D02*
X152291105Y-178819135D01*
X152245010Y-178836421D01*
X151830152Y-178784564D01*
X151329200Y-184728857D02*
X151329200Y-184377428D01*
X151540057Y-184799142D02*
X150802057Y-184553142D01*
X151540057Y-184307142D01*
X151540057Y-184061143D02*
X151048057Y-184061143D01*
X151188629Y-184061143D02*
X151118343Y-184026000D01*
X151083200Y-183990857D01*
X151048057Y-183920571D01*
X151048057Y-183850286D01*
X151540057Y-183288000D02*
X150802057Y-183288000D01*
X151504914Y-183288000D02*
X151540057Y-183358286D01*
X151540057Y-183498857D01*
X151504914Y-183569143D01*
X151469771Y-183604286D01*
X151399486Y-183639429D01*
X151188629Y-183639429D01*
X151118343Y-183604286D01*
X151083200Y-183569143D01*
X151048057Y-183498857D01*
X151048057Y-183358286D01*
X151083200Y-183288000D01*
X151048057Y-182620286D02*
X151540057Y-182620286D01*
X151048057Y-182936572D02*
X151434629Y-182936572D01*
X151504914Y-182901429D01*
X151540057Y-182831143D01*
X151540057Y-182725715D01*
X151504914Y-182655429D01*
X151469771Y-182620286D01*
X151540057Y-182268858D02*
X151048057Y-182268858D01*
X150802057Y-182268858D02*
X150837200Y-182304001D01*
X150872343Y-182268858D01*
X150837200Y-182233715D01*
X150802057Y-182268858D01*
X150872343Y-182268858D01*
X151048057Y-181917429D02*
X151540057Y-181917429D01*
X151118343Y-181917429D02*
X151083200Y-181882286D01*
X151048057Y-181812000D01*
X151048057Y-181706572D01*
X151083200Y-181636286D01*
X151153486Y-181601143D01*
X151540057Y-181601143D01*
X151540057Y-181144286D02*
X151504914Y-181214572D01*
X151469771Y-181249715D01*
X151399486Y-181284858D01*
X151188629Y-181284858D01*
X151118343Y-181249715D01*
X151083200Y-181214572D01*
X151048057Y-181144286D01*
X151048057Y-181038858D01*
X151083200Y-180968572D01*
X151118343Y-180933429D01*
X151188629Y-180898286D01*
X151399486Y-180898286D01*
X151469771Y-180933429D01*
X151504914Y-180968572D01*
X151540057Y-181038858D01*
X151540057Y-181144286D01*
X151540057Y-180019715D02*
X150802057Y-180019715D01*
X150802057Y-179738572D01*
X150837200Y-179668286D01*
X150872343Y-179633143D01*
X150942629Y-179598000D01*
X151048057Y-179598000D01*
X151118343Y-179633143D01*
X151153486Y-179668286D01*
X151188629Y-179738572D01*
X151188629Y-180019715D01*
X151540057Y-179281715D02*
X151048057Y-179281715D01*
X151188629Y-179281715D02*
X151118343Y-179246572D01*
X151083200Y-179211429D01*
X151048057Y-179141143D01*
X151048057Y-179070858D01*
X151540057Y-178719429D02*
X151504914Y-178789715D01*
X151469771Y-178824858D01*
X151399486Y-178860001D01*
X151188629Y-178860001D01*
X151118343Y-178824858D01*
X151083200Y-178789715D01*
X151048057Y-178719429D01*
X151048057Y-178614001D01*
X151083200Y-178543715D01*
X151118343Y-178508572D01*
X151188629Y-178473429D01*
X151399486Y-178473429D01*
X151469771Y-178508572D01*
X151504914Y-178543715D01*
X151540057Y-178614001D01*
X151540057Y-178719429D01*
X151540057Y-177594858D02*
X150802057Y-177594858D01*
X151329200Y-177348858D01*
X150802057Y-177102858D01*
X151540057Y-177102858D01*
X151540057Y-176751429D02*
X151048057Y-176751429D01*
X150802057Y-176751429D02*
X150837200Y-176786572D01*
X150872343Y-176751429D01*
X150837200Y-176716286D01*
X150802057Y-176751429D01*
X150872343Y-176751429D01*
X151048057Y-176400000D02*
X151540057Y-176400000D01*
X151118343Y-176400000D02*
X151083200Y-176364857D01*
X151048057Y-176294571D01*
X151048057Y-176189143D01*
X151083200Y-176118857D01*
X151153486Y-176083714D01*
X151540057Y-176083714D01*
X151540057Y-175732286D02*
X151048057Y-175732286D01*
X150802057Y-175732286D02*
X150837200Y-175767429D01*
X150872343Y-175732286D01*
X150837200Y-175697143D01*
X150802057Y-175732286D01*
X150872343Y-175732286D01*
D13*
X161039587Y-175602355D02*
X160817357Y-175637553D01*
X162173737Y-182763095D02*
X161852738Y-182813937D01*
X155012997Y-183897245D02*
X155333995Y-183846404D01*
X153878847Y-176736505D02*
X154199846Y-176685663D01*
X161039587Y-175602355D02*
X161090429Y-175923354D01*
X153878847Y-176736505D02*
X153929688Y-177057503D01*
X155012997Y-183897245D02*
X154962155Y-183576246D01*
X162173737Y-182763095D02*
X162122896Y-182442097D01*
X160817357Y-175637553D02*
X160594438Y-174230097D01*
D14*
X165297800Y-184867000D02*
X166297800Y-184867000D01*
X166297800Y-186227000D02*
X165297800Y-186227000D01*
X165070600Y-174402200D02*
X166070600Y-174402200D01*
X166070600Y-175762200D02*
X165070600Y-175762200D01*
X148900600Y-191229800D02*
X170960600Y-191229800D01*
X170960600Y-191229800D02*
X170960600Y-189109800D01*
X170960600Y-189109800D02*
X148900600Y-189109800D01*
X148900600Y-189109800D02*
X148900600Y-191229800D01*
X147900600Y-191229800D02*
X146840600Y-191229800D01*
X146840600Y-191229800D02*
X146840600Y-190169800D01*
X170267000Y-186457400D02*
X168267000Y-186457400D01*
X168267000Y-188497400D02*
X170267000Y-188497400D01*
X170061000Y-171725400D02*
X168061000Y-171725400D01*
X168061000Y-173765400D02*
X170061000Y-173765400D01*
X169246600Y-177358600D02*
X168546600Y-177358600D01*
X168546600Y-176158600D02*
X169246600Y-176158600D01*
X169054600Y-183219800D02*
X169754600Y-183219800D01*
X169754600Y-184419800D02*
X169054600Y-184419800D01*
X169195800Y-175682200D02*
X168495800Y-175682200D01*
X168495800Y-174482200D02*
X169195800Y-174482200D01*
X169054600Y-184794600D02*
X169754600Y-184794600D01*
X169754600Y-185994600D02*
X169054600Y-185994600D01*
X144848200Y-180043400D02*
X143848200Y-180043400D01*
X143848200Y-180043400D02*
X143848200Y-182143400D01*
X144848200Y-180043400D02*
X144848200Y-182143400D01*
X169994200Y-178875000D02*
X168994200Y-178875000D01*
X168994200Y-178875000D02*
X168994200Y-180975000D01*
X169994200Y-178875000D02*
X169994200Y-180975000D01*
X148900600Y-170909800D02*
X170960600Y-170909800D01*
X170960600Y-170909800D02*
X170960600Y-168789800D01*
X170960600Y-168789800D02*
X148900600Y-168789800D01*
X148900600Y-168789800D02*
X148900600Y-170909800D01*
X147900600Y-170909800D02*
X146840600Y-170909800D01*
X146840600Y-170909800D02*
X146840600Y-169849800D01*
X172650600Y-176089800D02*
X172650600Y-186149800D01*
X172650600Y-186149800D02*
X174770600Y-186149800D01*
X174770600Y-186149800D02*
X174770600Y-176089800D01*
X174770600Y-176089800D02*
X172650600Y-176089800D01*
X172650600Y-175089800D02*
X172650600Y-174029800D01*
X172650600Y-174029800D02*
X173710600Y-174029800D01*
X145560600Y-174609000D02*
X145560600Y-172549000D01*
X145560600Y-172549000D02*
X143440600Y-172549000D01*
X143440600Y-172549000D02*
X143440600Y-174609000D01*
X143440600Y-174609000D02*
X145560600Y-174609000D01*
X145560600Y-175609000D02*
X145560600Y-176669000D01*
X145560600Y-176669000D02*
X144500600Y-176669000D01*
X145560600Y-185359800D02*
X145560600Y-183299800D01*
X145560600Y-183299800D02*
X143440600Y-183299800D01*
X143440600Y-183299800D02*
X143440600Y-185359800D01*
X143440600Y-185359800D02*
X145560600Y-185359800D01*
X145560600Y-186359800D02*
X145560600Y-187419800D01*
X145560600Y-187419800D02*
X144500600Y-187419800D01*
X148586000Y-186448600D02*
X148086000Y-186448600D01*
X148086000Y-187388600D02*
X148586000Y-187388600D01*
X145028200Y-177821400D02*
X145028200Y-178821400D01*
X143668200Y-178821400D02*
X143668200Y-177821400D01*
X165501000Y-183038200D02*
X166501000Y-183038200D01*
X166501000Y-184398200D02*
X165501000Y-184398200D01*
X165273800Y-176027800D02*
X166273800Y-176027800D01*
X166273800Y-177387800D02*
X165273800Y-177387800D01*
X146500600Y-182579800D02*
X146500600Y-176459800D01*
X146500600Y-176459800D02*
X150120600Y-176459800D01*
X150120600Y-176459800D02*
X150120600Y-182579800D01*
X150120600Y-182579800D02*
X146500600Y-182579800D01*
X167939400Y-180943000D02*
X167939400Y-179143000D01*
X164719400Y-179143000D02*
X164719400Y-181593000D01*
D15*
X151810200Y-173050200D02*
G75*
G03X151810200Y-173050200I-100000J0D01*
G01*
D16*
X152210200Y-172400200D02*
X152210200Y-173700200D01*
X155650200Y-172400200D02*
X155650200Y-173700200D01*
D13*
X157825489Y-177495209D02*
X157025931Y-177621846D01*
X156939315Y-177683778D01*
X156899732Y-177738260D01*
X156867597Y-177839774D01*
X156897395Y-178027906D01*
X156959326Y-178114522D01*
X157013808Y-178154106D01*
X157115322Y-178186240D01*
X157914880Y-178059603D01*
X157887858Y-178497796D02*
X157942340Y-178537379D01*
X158004271Y-178623995D01*
X158041517Y-178859160D01*
X158009383Y-178960675D01*
X157969800Y-179015157D01*
X157883183Y-179077088D01*
X157789118Y-179091986D01*
X157640571Y-179067301D01*
X156986786Y-178592299D01*
X157083626Y-179203725D01*
D17*
X163925801Y-185871171D02*
X163761801Y-185636886D01*
X163644658Y-185871171D02*
X163644658Y-185379171D01*
X163832086Y-185379171D01*
X163878944Y-185402600D01*
X163902372Y-185426029D01*
X163925801Y-185472886D01*
X163925801Y-185543171D01*
X163902372Y-185590029D01*
X163878944Y-185613457D01*
X163832086Y-185636886D01*
X163644658Y-185636886D01*
X164113229Y-185426029D02*
X164136658Y-185402600D01*
X164183515Y-185379171D01*
X164300658Y-185379171D01*
X164347515Y-185402600D01*
X164370944Y-185426029D01*
X164394372Y-185472886D01*
X164394372Y-185519743D01*
X164370944Y-185590029D01*
X164089801Y-185871171D01*
X164394372Y-185871171D01*
D18*
X163875001Y-175380971D02*
X163711001Y-175146686D01*
X163593858Y-175380971D02*
X163593858Y-174888971D01*
X163781286Y-174888971D01*
X163828144Y-174912400D01*
X163851572Y-174935829D01*
X163875001Y-174982686D01*
X163875001Y-175052971D01*
X163851572Y-175099829D01*
X163828144Y-175123257D01*
X163781286Y-175146686D01*
X163593858Y-175146686D01*
X164320144Y-174888971D02*
X164085858Y-174888971D01*
X164062429Y-175123257D01*
X164085858Y-175099829D01*
X164132715Y-175076400D01*
X164249858Y-175076400D01*
X164296715Y-175099829D01*
X164320144Y-175123257D01*
X164343572Y-175170114D01*
X164343572Y-175287257D01*
X164320144Y-175334114D01*
X164296715Y-175357543D01*
X164249858Y-175380971D01*
X164132715Y-175380971D01*
X164085858Y-175357543D01*
X164062429Y-175334114D01*
D17*
X145704371Y-190333800D02*
X146055800Y-190333800D01*
X146126086Y-190357228D01*
X146172943Y-190404085D01*
X146196371Y-190474371D01*
X146196371Y-190521228D01*
X145751229Y-190122943D02*
X145727800Y-190099514D01*
X145704371Y-190052657D01*
X145704371Y-189935514D01*
X145727800Y-189888657D01*
X145751229Y-189865228D01*
X145798086Y-189841800D01*
X145844943Y-189841800D01*
X145915229Y-189865228D01*
X146196371Y-190146371D01*
X146196371Y-189841800D01*
X171901401Y-187653114D02*
X171877972Y-187676543D01*
X171807686Y-187699971D01*
X171760829Y-187699971D01*
X171690544Y-187676543D01*
X171643686Y-187629686D01*
X171620258Y-187582829D01*
X171596829Y-187489114D01*
X171596829Y-187418829D01*
X171620258Y-187325114D01*
X171643686Y-187278257D01*
X171690544Y-187231400D01*
X171760829Y-187207971D01*
X171807686Y-187207971D01*
X171877972Y-187231400D01*
X171901401Y-187254829D01*
X172369972Y-187699971D02*
X172088829Y-187699971D01*
X172229401Y-187699971D02*
X172229401Y-187207971D01*
X172182544Y-187278257D01*
X172135686Y-187325114D01*
X172088829Y-187348543D01*
X171749001Y-172971914D02*
X171725572Y-172995343D01*
X171655286Y-173018771D01*
X171608429Y-173018771D01*
X171538144Y-172995343D01*
X171491286Y-172948486D01*
X171467858Y-172901629D01*
X171444429Y-172807914D01*
X171444429Y-172737629D01*
X171467858Y-172643914D01*
X171491286Y-172597057D01*
X171538144Y-172550200D01*
X171608429Y-172526771D01*
X171655286Y-172526771D01*
X171725572Y-172550200D01*
X171749001Y-172573629D01*
X171936429Y-172573629D02*
X171959858Y-172550200D01*
X172006715Y-172526771D01*
X172123858Y-172526771D01*
X172170715Y-172550200D01*
X172194144Y-172573629D01*
X172217572Y-172620486D01*
X172217572Y-172667343D01*
X172194144Y-172737629D01*
X171913001Y-173018771D01*
X172217572Y-173018771D01*
X170758401Y-176908914D02*
X170734972Y-176932343D01*
X170664686Y-176955771D01*
X170617829Y-176955771D01*
X170547544Y-176932343D01*
X170500686Y-176885486D01*
X170477258Y-176838629D01*
X170453829Y-176744914D01*
X170453829Y-176674629D01*
X170477258Y-176580914D01*
X170500686Y-176534057D01*
X170547544Y-176487200D01*
X170617829Y-176463771D01*
X170664686Y-176463771D01*
X170734972Y-176487200D01*
X170758401Y-176510629D01*
X170922401Y-176463771D02*
X171226972Y-176463771D01*
X171062972Y-176651200D01*
X171133258Y-176651200D01*
X171180115Y-176674629D01*
X171203544Y-176698057D01*
X171226972Y-176744914D01*
X171226972Y-176862057D01*
X171203544Y-176908914D01*
X171180115Y-176932343D01*
X171133258Y-176955771D01*
X170992686Y-176955771D01*
X170945829Y-176932343D01*
X170922401Y-176908914D01*
X171164801Y-183919314D02*
X171141372Y-183942743D01*
X171071086Y-183966171D01*
X171024229Y-183966171D01*
X170953944Y-183942743D01*
X170907086Y-183895886D01*
X170883658Y-183849029D01*
X170860229Y-183755314D01*
X170860229Y-183685029D01*
X170883658Y-183591314D01*
X170907086Y-183544457D01*
X170953944Y-183497600D01*
X171024229Y-183474171D01*
X171071086Y-183474171D01*
X171141372Y-183497600D01*
X171164801Y-183521029D01*
X171586515Y-183638171D02*
X171586515Y-183966171D01*
X171469372Y-183450743D02*
X171352229Y-183802171D01*
X171656801Y-183802171D01*
D18*
X170682201Y-175257914D02*
X170658772Y-175281343D01*
X170588486Y-175304771D01*
X170541629Y-175304771D01*
X170471344Y-175281343D01*
X170424486Y-175234486D01*
X170401058Y-175187629D01*
X170377629Y-175093914D01*
X170377629Y-175023629D01*
X170401058Y-174929914D01*
X170424486Y-174883057D01*
X170471344Y-174836200D01*
X170541629Y-174812771D01*
X170588486Y-174812771D01*
X170658772Y-174836200D01*
X170682201Y-174859629D01*
X171127344Y-174812771D02*
X170893058Y-174812771D01*
X170869629Y-175047057D01*
X170893058Y-175023629D01*
X170939915Y-175000200D01*
X171057058Y-175000200D01*
X171103915Y-175023629D01*
X171127344Y-175047057D01*
X171150772Y-175093914D01*
X171150772Y-175211057D01*
X171127344Y-175257914D01*
X171103915Y-175281343D01*
X171057058Y-175304771D01*
X170939915Y-175304771D01*
X170893058Y-175281343D01*
X170869629Y-175257914D01*
D17*
X171139401Y-185163914D02*
X171115972Y-185187343D01*
X171045686Y-185210771D01*
X170998829Y-185210771D01*
X170928544Y-185187343D01*
X170881686Y-185140486D01*
X170858258Y-185093629D01*
X170834829Y-184999914D01*
X170834829Y-184929629D01*
X170858258Y-184835914D01*
X170881686Y-184789057D01*
X170928544Y-184742200D01*
X170998829Y-184718771D01*
X171045686Y-184718771D01*
X171115972Y-184742200D01*
X171139401Y-184765629D01*
X171561115Y-184718771D02*
X171467401Y-184718771D01*
X171420544Y-184742200D01*
X171397115Y-184765629D01*
X171350258Y-184835914D01*
X171326829Y-184929629D01*
X171326829Y-185117057D01*
X171350258Y-185163914D01*
X171373686Y-185187343D01*
X171420544Y-185210771D01*
X171514258Y-185210771D01*
X171561115Y-185187343D01*
X171584544Y-185163914D01*
X171607972Y-185117057D01*
X171607972Y-184999914D01*
X171584544Y-184953057D01*
X171561115Y-184929629D01*
X171514258Y-184906200D01*
X171420544Y-184906200D01*
X171373686Y-184929629D01*
X171350258Y-184953057D01*
X171326829Y-184999914D01*
X145535971Y-181592142D02*
X145043971Y-181592142D01*
X145043971Y-181474999D01*
X145067400Y-181404714D01*
X145114257Y-181357856D01*
X145161114Y-181334428D01*
X145254829Y-181310999D01*
X145325114Y-181310999D01*
X145418829Y-181334428D01*
X145465686Y-181357856D01*
X145512543Y-181404714D01*
X145535971Y-181474999D01*
X145535971Y-181592142D01*
X145535971Y-180842428D02*
X145535971Y-181123571D01*
X145535971Y-180982999D02*
X145043971Y-180982999D01*
X145114257Y-181029856D01*
X145161114Y-181076714D01*
X145184543Y-181123571D01*
X170859771Y-180474542D02*
X170367771Y-180474542D01*
X170367771Y-180357399D01*
X170391200Y-180287114D01*
X170438057Y-180240256D01*
X170484914Y-180216828D01*
X170578629Y-180193399D01*
X170648914Y-180193399D01*
X170742629Y-180216828D01*
X170789486Y-180240256D01*
X170836343Y-180287114D01*
X170859771Y-180357399D01*
X170859771Y-180474542D01*
X170414629Y-180005971D02*
X170391200Y-179982542D01*
X170367771Y-179935685D01*
X170367771Y-179818542D01*
X170391200Y-179771685D01*
X170414629Y-179748256D01*
X170461486Y-179724828D01*
X170508343Y-179724828D01*
X170578629Y-179748256D01*
X170859771Y-180029399D01*
X170859771Y-179724828D01*
X145755171Y-170013800D02*
X146106600Y-170013800D01*
X146176886Y-170037228D01*
X146223743Y-170084085D01*
X146247171Y-170154371D01*
X146247171Y-170201228D01*
X146247171Y-169521800D02*
X146247171Y-169802943D01*
X146247171Y-169662371D02*
X145755171Y-169662371D01*
X145825457Y-169709228D01*
X145872314Y-169756086D01*
X145895743Y-169802943D01*
X173495800Y-173034771D02*
X173495800Y-173386200D01*
X173472372Y-173456486D01*
X173425515Y-173503343D01*
X173355229Y-173526771D01*
X173308372Y-173526771D01*
X173683229Y-173034771D02*
X173987800Y-173034771D01*
X173823800Y-173222200D01*
X173894086Y-173222200D01*
X173940943Y-173245629D01*
X173964372Y-173269057D01*
X173987800Y-173315914D01*
X173987800Y-173433057D01*
X173964372Y-173479914D01*
X173940943Y-173503343D01*
X173894086Y-173526771D01*
X173753514Y-173526771D01*
X173706657Y-173503343D01*
X173683229Y-173479914D01*
X144133400Y-171663171D02*
X144133400Y-172014600D01*
X144109972Y-172084886D01*
X144063115Y-172131743D01*
X143992829Y-172155171D01*
X143945972Y-172155171D01*
X144578543Y-171827171D02*
X144578543Y-172155171D01*
X144461400Y-171639743D02*
X144344257Y-171991171D01*
X144648829Y-171991171D01*
X144285800Y-187715971D02*
X144285800Y-188067400D01*
X144262372Y-188137686D01*
X144215515Y-188184543D01*
X144145229Y-188207971D01*
X144098372Y-188207971D01*
X144754372Y-187715971D02*
X144520086Y-187715971D01*
X144496657Y-187950257D01*
X144520086Y-187926829D01*
X144566943Y-187903400D01*
X144684086Y-187903400D01*
X144730943Y-187926829D01*
X144754372Y-187950257D01*
X144777800Y-187997114D01*
X144777800Y-188114257D01*
X144754372Y-188161114D01*
X144730943Y-188184543D01*
X144684086Y-188207971D01*
X144566943Y-188207971D01*
X144520086Y-188184543D01*
X144496657Y-188161114D01*
X147731600Y-185937971D02*
X147731600Y-186289400D01*
X147708172Y-186359686D01*
X147661315Y-186406543D01*
X147591029Y-186429971D01*
X147544172Y-186429971D01*
X147965886Y-186429971D02*
X147965886Y-185937971D01*
X148153314Y-185937971D01*
X148200172Y-185961400D01*
X148223600Y-185984829D01*
X148247029Y-186031686D01*
X148247029Y-186101971D01*
X148223600Y-186148829D01*
X148200172Y-186172257D01*
X148153314Y-186195686D01*
X147965886Y-186195686D01*
X148715600Y-186429971D02*
X148434457Y-186429971D01*
X148575029Y-186429971D02*
X148575029Y-185937971D01*
X148528172Y-186008257D01*
X148481314Y-186055114D01*
X148434457Y-186078543D01*
X145637571Y-178415399D02*
X145403286Y-178579399D01*
X145637571Y-178696542D02*
X145145571Y-178696542D01*
X145145571Y-178509114D01*
X145169000Y-178462256D01*
X145192429Y-178438828D01*
X145239286Y-178415399D01*
X145309571Y-178415399D01*
X145356429Y-178438828D01*
X145379857Y-178462256D01*
X145403286Y-178509114D01*
X145403286Y-178696542D01*
X145637571Y-177946828D02*
X145637571Y-178227971D01*
X145637571Y-178087399D02*
X145145571Y-178087399D01*
X145215857Y-178134256D01*
X145262714Y-178181114D01*
X145286143Y-178227971D01*
X163773401Y-184042371D02*
X163609401Y-183808086D01*
X163492258Y-184042371D02*
X163492258Y-183550371D01*
X163679686Y-183550371D01*
X163726544Y-183573800D01*
X163749972Y-183597229D01*
X163773401Y-183644086D01*
X163773401Y-183714371D01*
X163749972Y-183761229D01*
X163726544Y-183784657D01*
X163679686Y-183808086D01*
X163492258Y-183808086D01*
X163937401Y-183550371D02*
X164241972Y-183550371D01*
X164077972Y-183737800D01*
X164148258Y-183737800D01*
X164195115Y-183761229D01*
X164218544Y-183784657D01*
X164241972Y-183831514D01*
X164241972Y-183948657D01*
X164218544Y-183995514D01*
X164195115Y-184018943D01*
X164148258Y-184042371D01*
X164007686Y-184042371D01*
X163960829Y-184018943D01*
X163937401Y-183995514D01*
X163925801Y-176930371D02*
X163761801Y-176696086D01*
X163644658Y-176930371D02*
X163644658Y-176438371D01*
X163832086Y-176438371D01*
X163878944Y-176461800D01*
X163902372Y-176485229D01*
X163925801Y-176532086D01*
X163925801Y-176602371D01*
X163902372Y-176649229D01*
X163878944Y-176672657D01*
X163832086Y-176696086D01*
X163644658Y-176696086D01*
X164347515Y-176602371D02*
X164347515Y-176930371D01*
X164230372Y-176414943D02*
X164113229Y-176766371D01*
X164417801Y-176766371D01*
X146020543Y-180259400D02*
X146043971Y-180189114D01*
X146043971Y-180071971D01*
X146020543Y-180025114D01*
X145997114Y-180001685D01*
X145950257Y-179978257D01*
X145903400Y-179978257D01*
X145856543Y-180001685D01*
X145833114Y-180025114D01*
X145809686Y-180071971D01*
X145786257Y-180165685D01*
X145762829Y-180212543D01*
X145739400Y-180235971D01*
X145692543Y-180259400D01*
X145645686Y-180259400D01*
X145598829Y-180235971D01*
X145575400Y-180212543D01*
X145551971Y-180165685D01*
X145551971Y-180048543D01*
X145575400Y-179978257D01*
X145551971Y-179814257D02*
X146043971Y-179697114D01*
X145692543Y-179603400D01*
X146043971Y-179509686D01*
X145551971Y-179392543D01*
X146043971Y-178947400D02*
X146043971Y-179228543D01*
X146043971Y-179087971D02*
X145551971Y-179087971D01*
X145622257Y-179134828D01*
X145669114Y-179181686D01*
X145692543Y-179228543D01*
X168157971Y-180435457D02*
X168556257Y-180435457D01*
X168603114Y-180412029D01*
X168626543Y-180388600D01*
X168649971Y-180341743D01*
X168649971Y-180248029D01*
X168626543Y-180201171D01*
X168603114Y-180177743D01*
X168556257Y-180154314D01*
X168157971Y-180154314D01*
X168649971Y-179662314D02*
X168649971Y-179943457D01*
X168649971Y-179802885D02*
X168157971Y-179802885D01*
X168228257Y-179849742D01*
X168275114Y-179896600D01*
X168298543Y-179943457D01*
X156102391Y-173142610D02*
X156102391Y-173326419D01*
X155973724Y-172940419D02*
X156102391Y-173142610D01*
X156231057Y-172940419D01*
X156561914Y-173326419D02*
X156341343Y-173326419D01*
X156451629Y-173326419D02*
X156451629Y-172940419D01*
X156414867Y-172995562D01*
X156378105Y-173032324D01*
X156341343Y-173050705D01*
D13*
M02*
