M48
;DRILL file {KiCad 4.0.7} date 11/17/20 22:45:59
;FORMAT={-:-/ absolute / inch / decimal}
FMAT,2
INCH,TZ
T1C0.031
%
G90
G05
M72
T1
X5.689Y-6.835
X5.689Y-6.9137
X5.689Y-7.2583
X5.689Y-7.337
X5.8229Y-6.687
X5.8229Y-7.487
X5.9016Y-6.687
X5.9016Y-7.487
X5.9803Y-6.687
X5.9803Y-7.487
X6.0591Y-6.687
X6.0591Y-7.487
X6.1378Y-6.687
X6.1378Y-7.487
X6.2166Y-6.687
X6.2166Y-7.487
X6.2953Y-6.687
X6.2953Y-7.487
X6.374Y-6.687
X6.374Y-7.487
X6.4528Y-6.687
X6.4528Y-7.487
X6.5315Y-6.687
X6.5315Y-7.487
X6.6103Y-6.687
X6.6103Y-7.487
X6.689Y-6.687
X6.689Y-7.487
X6.839Y-6.8933
X6.839Y-6.972
X6.839Y-7.0508
X6.839Y-7.1295
X6.839Y-7.2083
X6.839Y-7.287
T0
M30
