G04 #@! TF.FileFunction,Copper,L1,Top,Signal*
%FSLAX46Y46*%
G04 Gerber Fmt 4.6, Leading zero omitted, Abs format (unit mm)*
G04 Created by KiCad (PCBNEW 4.0.7) date 11/17/20 22:45:57*
%MOMM*%
%LPD*%
G01*
G04 APERTURE LIST*
%ADD10C,0.100000*%
%ADD11R,0.500000X0.900000*%
%ADD12R,1.350000X1.350000*%
%ADD13O,1.350000X1.350000*%
%ADD14R,1.000000X1.600000*%
%ADD15R,0.800000X0.750000*%
%ADD16R,0.800000X0.800000*%
%ADD17R,0.600000X0.500000*%
%ADD18R,0.900000X0.500000*%
%ADD19R,1.600000X2.180000*%
%ADD20R,0.650000X1.060000*%
%ADD21R,0.400000X1.900000*%
%ADD22C,0.250000*%
G04 APERTURE END LIST*
D10*
G36*
X159730211Y-174366977D02*
X160273440Y-174280938D01*
X160523735Y-175861239D01*
X159980506Y-175947278D01*
X159730211Y-174366977D01*
X159730211Y-174366977D01*
G37*
G36*
X158940060Y-174492125D02*
X159483289Y-174406086D01*
X159733584Y-175986387D01*
X159190355Y-176072426D01*
X158940060Y-174492125D01*
X158940060Y-174492125D01*
G37*
G36*
X158149910Y-174617272D02*
X158693139Y-174531233D01*
X158943434Y-176111534D01*
X158400205Y-176197573D01*
X158149910Y-174617272D01*
X158149910Y-174617272D01*
G37*
G36*
X157359759Y-174742420D02*
X157902988Y-174656381D01*
X158153283Y-176236682D01*
X157610054Y-176322721D01*
X157359759Y-174742420D01*
X157359759Y-174742420D01*
G37*
G36*
X156569608Y-174867567D02*
X157112837Y-174781528D01*
X157363132Y-176361829D01*
X156819903Y-176447868D01*
X156569608Y-174867567D01*
X156569608Y-174867567D01*
G37*
G36*
X155779458Y-174992715D02*
X156322687Y-174906676D01*
X156572982Y-176486977D01*
X156029753Y-176573016D01*
X155779458Y-174992715D01*
X155779458Y-174992715D01*
G37*
G36*
X154989307Y-175117862D02*
X155532536Y-175031823D01*
X155782831Y-176612124D01*
X155239602Y-176698163D01*
X154989307Y-175117862D01*
X154989307Y-175117862D01*
G37*
G36*
X154199156Y-175243010D02*
X154742385Y-175156971D01*
X154992680Y-176737272D01*
X154449451Y-176823311D01*
X154199156Y-175243010D01*
X154199156Y-175243010D01*
G37*
G36*
X152643469Y-178045881D02*
X152557430Y-177502652D01*
X154137731Y-177252357D01*
X154223770Y-177795586D01*
X152643469Y-178045881D01*
X152643469Y-178045881D01*
G37*
G36*
X152768617Y-178836032D02*
X152682578Y-178292803D01*
X154262879Y-178042508D01*
X154348918Y-178585737D01*
X152768617Y-178836032D01*
X152768617Y-178836032D01*
G37*
G36*
X152893764Y-179626182D02*
X152807725Y-179082953D01*
X154388026Y-178832658D01*
X154474065Y-179375887D01*
X152893764Y-179626182D01*
X152893764Y-179626182D01*
G37*
G36*
X153018912Y-180416333D02*
X152932873Y-179873104D01*
X154513174Y-179622809D01*
X154599213Y-180166038D01*
X153018912Y-180416333D01*
X153018912Y-180416333D01*
G37*
G36*
X153144059Y-181206484D02*
X153058020Y-180663255D01*
X154638321Y-180412960D01*
X154724360Y-180956189D01*
X153144059Y-181206484D01*
X153144059Y-181206484D01*
G37*
G36*
X153269207Y-181996634D02*
X153183168Y-181453405D01*
X154763469Y-181203110D01*
X154849508Y-181746339D01*
X153269207Y-181996634D01*
X153269207Y-181996634D01*
G37*
G36*
X153394354Y-182786785D02*
X153308315Y-182243556D01*
X154888616Y-181993261D01*
X154974655Y-182536490D01*
X153394354Y-182786785D01*
X153394354Y-182786785D01*
G37*
G36*
X153519502Y-183576936D02*
X153433463Y-183033707D01*
X155013764Y-182783412D01*
X155099803Y-183326641D01*
X153519502Y-183576936D01*
X153519502Y-183576936D01*
G37*
G36*
X155528849Y-183638361D02*
X156072078Y-183552322D01*
X156322373Y-185132623D01*
X155779144Y-185218662D01*
X155528849Y-183638361D01*
X155528849Y-183638361D01*
G37*
G36*
X156319000Y-183513213D02*
X156862229Y-183427174D01*
X157112524Y-185007475D01*
X156569295Y-185093514D01*
X156319000Y-183513213D01*
X156319000Y-183513213D01*
G37*
G36*
X157109150Y-183388066D02*
X157652379Y-183302027D01*
X157902674Y-184882328D01*
X157359445Y-184968367D01*
X157109150Y-183388066D01*
X157109150Y-183388066D01*
G37*
G36*
X157899301Y-183262918D02*
X158442530Y-183176879D01*
X158692825Y-184757180D01*
X158149596Y-184843219D01*
X157899301Y-183262918D01*
X157899301Y-183262918D01*
G37*
G36*
X158689452Y-183137771D02*
X159232681Y-183051732D01*
X159482976Y-184632033D01*
X158939747Y-184718072D01*
X158689452Y-183137771D01*
X158689452Y-183137771D01*
G37*
G36*
X159479602Y-183012623D02*
X160022831Y-182926584D01*
X160273126Y-184506885D01*
X159729897Y-184592924D01*
X159479602Y-183012623D01*
X159479602Y-183012623D01*
G37*
G36*
X160269753Y-182887476D02*
X160812982Y-182801437D01*
X161063277Y-184381738D01*
X160520048Y-184467777D01*
X160269753Y-182887476D01*
X160269753Y-182887476D01*
G37*
G36*
X161059904Y-182762328D02*
X161603133Y-182676289D01*
X161853428Y-184256590D01*
X161310199Y-184342629D01*
X161059904Y-182762328D01*
X161059904Y-182762328D01*
G37*
G36*
X161914853Y-182247243D02*
X161828814Y-181704014D01*
X163409115Y-181453719D01*
X163495154Y-181996948D01*
X161914853Y-182247243D01*
X161914853Y-182247243D01*
G37*
G36*
X161789705Y-181457092D02*
X161703666Y-180913863D01*
X163283967Y-180663568D01*
X163370006Y-181206797D01*
X161789705Y-181457092D01*
X161789705Y-181457092D01*
G37*
G36*
X161664558Y-180666942D02*
X161578519Y-180123713D01*
X163158820Y-179873418D01*
X163244859Y-180416647D01*
X161664558Y-180666942D01*
X161664558Y-180666942D01*
G37*
G36*
X161539410Y-179876791D02*
X161453371Y-179333562D01*
X163033672Y-179083267D01*
X163119711Y-179626496D01*
X161539410Y-179876791D01*
X161539410Y-179876791D01*
G37*
G36*
X161414263Y-179086640D02*
X161328224Y-178543411D01*
X162908525Y-178293116D01*
X162994564Y-178836345D01*
X161414263Y-179086640D01*
X161414263Y-179086640D01*
G37*
G36*
X161289115Y-178296490D02*
X161203076Y-177753261D01*
X162783377Y-177502966D01*
X162869416Y-178046195D01*
X161289115Y-178296490D01*
X161289115Y-178296490D01*
G37*
G36*
X161163968Y-177506339D02*
X161077929Y-176963110D01*
X162658230Y-176712815D01*
X162744269Y-177256044D01*
X161163968Y-177506339D01*
X161163968Y-177506339D01*
G37*
G36*
X161038820Y-176716188D02*
X160952781Y-176172959D01*
X162533082Y-175922664D01*
X162619121Y-176465893D01*
X161038820Y-176716188D01*
X161038820Y-176716188D01*
G37*
D11*
X166547800Y-185547000D03*
X165047800Y-185547000D03*
X166320600Y-175082200D03*
X164820600Y-175082200D03*
D12*
X147900600Y-190169800D03*
D13*
X149900600Y-190169800D03*
X151900600Y-190169800D03*
X153900600Y-190169800D03*
X155900600Y-190169800D03*
X157900600Y-190169800D03*
X159900600Y-190169800D03*
X161900600Y-190169800D03*
X163900600Y-190169800D03*
X165900600Y-190169800D03*
X167900600Y-190169800D03*
X169900600Y-190169800D03*
D14*
X167767000Y-187477400D03*
X170767000Y-187477400D03*
X167561000Y-172745400D03*
X170561000Y-172745400D03*
D15*
X169646600Y-176758600D03*
X168146600Y-176758600D03*
X168654600Y-183819800D03*
X170154600Y-183819800D03*
X169595800Y-175082200D03*
X168095800Y-175082200D03*
X168654600Y-185394600D03*
X170154600Y-185394600D03*
D16*
X144348200Y-182143400D03*
X144348200Y-180543400D03*
X169494200Y-180975000D03*
X169494200Y-179375000D03*
D12*
X147900600Y-169849800D03*
D13*
X149900600Y-169849800D03*
X151900600Y-169849800D03*
X153900600Y-169849800D03*
X155900600Y-169849800D03*
X157900600Y-169849800D03*
X159900600Y-169849800D03*
X161900600Y-169849800D03*
X163900600Y-169849800D03*
X165900600Y-169849800D03*
X167900600Y-169849800D03*
X169900600Y-169849800D03*
D12*
X173710600Y-175089800D03*
D13*
X173710600Y-177089800D03*
X173710600Y-179089800D03*
X173710600Y-181089800D03*
X173710600Y-183089800D03*
X173710600Y-185089800D03*
D12*
X144500600Y-175609000D03*
D13*
X144500600Y-173609000D03*
D12*
X144500600Y-186359800D03*
D13*
X144500600Y-184359800D03*
D17*
X147786000Y-186918600D03*
X148886000Y-186918600D03*
D18*
X144348200Y-179071400D03*
X144348200Y-177571400D03*
D11*
X166751000Y-183718200D03*
X165251000Y-183718200D03*
X166523800Y-176707800D03*
X165023800Y-176707800D03*
D19*
X148310600Y-184109800D03*
X148310600Y-174929800D03*
D20*
X165379400Y-181143000D03*
X166329400Y-181143000D03*
X167279400Y-181143000D03*
X167279400Y-178943000D03*
X165379400Y-178943000D03*
D21*
X152730200Y-173050200D03*
X153930200Y-173050200D03*
X155130200Y-173050200D03*
D22*
X167279400Y-181143000D02*
X167854400Y-181143000D01*
X167854400Y-181143000D02*
X167870000Y-181127400D01*
X167870000Y-181127400D02*
X168325800Y-181127400D01*
X168325800Y-181127400D02*
X169341800Y-182143400D01*
X169341800Y-182143400D02*
X169341800Y-183261000D01*
X169341800Y-183261000D02*
X169379601Y-183298801D01*
X169379601Y-183298801D02*
X169379601Y-186029601D01*
X169379601Y-186029601D02*
X169100202Y-186309000D01*
X169100202Y-186309000D02*
X168635400Y-186309000D01*
X168635400Y-186309000D02*
X167767000Y-187177400D01*
X167767000Y-187177400D02*
X167767000Y-187477400D01*
X167279400Y-181143000D02*
X167279400Y-180363000D01*
X167279400Y-180363000D02*
X167078600Y-180162200D01*
X167078600Y-180162200D02*
X165580200Y-180162200D01*
X165580200Y-180162200D02*
X165379400Y-180363000D01*
X165379400Y-180363000D02*
X165379400Y-181143000D01*
X169799000Y-188849000D02*
X169900600Y-188950600D01*
X169900600Y-188950600D02*
X169900600Y-190169800D01*
X168838600Y-188849000D02*
X169799000Y-188849000D01*
X167767000Y-187477400D02*
X167767000Y-187777400D01*
X167767000Y-187777400D02*
X168838600Y-188849000D01*
X169494200Y-179375000D02*
X170144200Y-179375000D01*
X170144200Y-179375000D02*
X170219201Y-179450001D01*
X170219201Y-179450001D02*
X170219201Y-183130199D01*
X170219201Y-183130199D02*
X170154600Y-183194800D01*
X170154600Y-183194800D02*
X170154600Y-183819800D01*
X158546672Y-173431072D02*
X156890799Y-171775199D01*
X156890799Y-171775199D02*
X154455201Y-171775199D01*
X158546672Y-175364403D02*
X158546672Y-173431072D01*
X147260600Y-174929800D02*
X145465800Y-176724600D01*
X144348200Y-177571400D02*
X144348200Y-177071400D01*
X144348200Y-177071400D02*
X144695000Y-176724600D01*
X144695000Y-176724600D02*
X145465800Y-176724600D01*
X166309200Y-184429400D02*
X164465000Y-184429400D01*
X164465000Y-184429400D02*
X164356210Y-184320610D01*
X164356210Y-184320610D02*
X164356210Y-183447400D01*
X164356210Y-183447400D02*
X164720182Y-183083428D01*
X169494200Y-179375000D02*
X169494200Y-176911000D01*
X169494200Y-176911000D02*
X169646600Y-176758600D01*
X166254399Y-181998001D02*
X164762799Y-181998001D01*
X164762799Y-181998001D02*
X164720182Y-182040618D01*
X164720182Y-182040618D02*
X164720182Y-182447018D01*
X164720182Y-182447018D02*
X164720182Y-183083428D01*
X166329400Y-181923000D02*
X166329400Y-181143000D01*
X164720182Y-183083428D02*
X164720183Y-183083427D01*
X169646600Y-176758600D02*
X169646600Y-175133000D01*
X169646600Y-175133000D02*
X169595800Y-175082200D01*
X158546672Y-174294672D02*
X158546672Y-174454432D01*
X158546672Y-174454432D02*
X158546672Y-175364403D01*
X153930200Y-173050200D02*
X153930200Y-172300200D01*
X153930200Y-172300200D02*
X154455201Y-171775199D01*
X157901194Y-189215206D02*
X159086214Y-188030186D01*
X159086214Y-188030186D02*
X159086214Y-183884902D01*
X157900600Y-189215206D02*
X157901194Y-189215206D01*
X170561000Y-172745400D02*
X170561000Y-173045400D01*
X170561000Y-173045400D02*
X172605400Y-175089800D01*
X172605400Y-175089800D02*
X172785600Y-175089800D01*
X172785600Y-175089800D02*
X173710600Y-175089800D01*
X157900600Y-190169800D02*
X157900600Y-189215206D01*
X159086214Y-185388586D02*
X159086214Y-183884902D01*
X148310600Y-174929800D02*
X147260600Y-174929800D01*
X172873400Y-177089800D02*
X172542200Y-176758600D01*
X172542200Y-176758600D02*
X172542200Y-176504600D01*
X173710600Y-177089800D02*
X172873400Y-177089800D01*
X172542200Y-175333200D02*
X172542200Y-176504600D01*
X172785600Y-175089800D02*
X172542200Y-175333200D01*
X156966370Y-175614698D02*
X156966370Y-176809400D01*
X157251400Y-177165000D02*
X156966370Y-176879970D01*
X156966370Y-176879970D02*
X156966370Y-176809400D01*
X158114744Y-177165000D02*
X157251400Y-177165000D01*
X158546672Y-176733072D02*
X158114744Y-177165000D01*
X158546672Y-175364403D02*
X158546672Y-176733072D01*
X172745400Y-179079194D02*
X172745400Y-177598210D01*
X172092190Y-176945000D02*
X172745400Y-177598210D01*
X170843790Y-173964600D02*
X172092190Y-175213000D01*
X172092190Y-175213000D02*
X172092190Y-176945000D01*
X167730200Y-173964600D02*
X170843790Y-173964600D01*
X167561000Y-173795400D02*
X167730200Y-173964600D01*
X166523800Y-176707800D02*
X166523800Y-175285400D01*
X166523800Y-175285400D02*
X166320600Y-175082200D01*
X166523800Y-176707800D02*
X168095800Y-176707800D01*
X155900600Y-190169800D02*
X155900600Y-187456600D01*
X155900600Y-187456600D02*
X156715762Y-186641438D01*
X156715762Y-186641438D02*
X156715762Y-184260344D01*
X166320600Y-175082200D02*
X168095800Y-175082200D01*
X166320600Y-175082200D02*
X166320600Y-173235800D01*
X166320600Y-173235800D02*
X166811000Y-172745400D01*
X166811000Y-172745400D02*
X167561000Y-172745400D01*
X166371400Y-175133000D02*
X166320600Y-175082200D01*
X156176220Y-175739846D02*
X156176220Y-183196829D01*
X156176220Y-183196829D02*
X156715762Y-183736371D01*
X156715762Y-183736371D02*
X156715762Y-184260344D01*
X168095800Y-175082200D02*
X168095800Y-176707800D01*
X168095800Y-175082200D02*
X168070800Y-175082200D01*
X168070800Y-175082200D02*
X167561000Y-174572400D01*
X167561000Y-174572400D02*
X167561000Y-173795400D01*
X167561000Y-172745400D02*
X167561000Y-173795400D01*
X173710600Y-179089800D02*
X172756006Y-179089800D01*
X172756006Y-179089800D02*
X172745400Y-179079194D01*
X156176220Y-175739846D02*
X156176220Y-174829875D01*
X156176220Y-174829875D02*
X156184600Y-174821495D01*
X156184600Y-174821495D02*
X156184600Y-174218600D01*
X156184600Y-174218600D02*
X156641800Y-173761400D01*
X156641800Y-173761400D02*
X157251400Y-173761400D01*
X157251400Y-173761400D02*
X157756521Y-174266521D01*
X157756521Y-174266521D02*
X157756521Y-175489551D01*
X165047800Y-185547000D02*
X165047800Y-187525390D01*
X165047800Y-187525390D02*
X165609410Y-188087000D01*
X164261800Y-188087000D02*
X165125400Y-188087000D01*
X165125400Y-188087000D02*
X165609410Y-188087000D01*
X167106600Y-188822190D02*
X166852600Y-188568190D01*
X167671801Y-186352399D02*
X168629600Y-185394600D01*
X166852600Y-188568190D02*
X166852600Y-186506798D01*
X166852600Y-186506798D02*
X167006999Y-186352399D01*
X167006999Y-186352399D02*
X167671801Y-186352399D01*
X168629600Y-185394600D02*
X168654600Y-185394600D01*
X168744200Y-185305000D02*
X168654600Y-185394600D01*
X166344600Y-188822190D02*
X167106600Y-188822190D01*
X167106600Y-188822190D02*
X167638590Y-188822190D01*
X163906200Y-183261000D02*
X163906200Y-187731400D01*
X164261800Y-188087000D02*
X163906200Y-187731400D01*
X162161394Y-178689878D02*
X163099918Y-178689878D01*
X164270173Y-182897027D02*
X163906200Y-183261000D01*
X163099918Y-178689878D02*
X164270173Y-179860133D01*
X164270173Y-179860133D02*
X164270173Y-182897027D01*
X165609410Y-188087000D02*
X166344600Y-188822190D01*
X167900600Y-189084200D02*
X167900600Y-190169800D01*
X167638590Y-188822190D02*
X167900600Y-189084200D01*
X169900600Y-169849800D02*
X169900600Y-171272200D01*
X169709985Y-171462815D02*
X165560405Y-171462815D01*
X169900600Y-171272200D02*
X169709985Y-171462815D01*
X163942616Y-177818627D02*
X163071365Y-178689878D01*
X165560405Y-171462815D02*
X163942620Y-173080600D01*
X163942620Y-173080600D02*
X163942620Y-177469800D01*
X163942620Y-177469800D02*
X163942616Y-177818627D01*
X163071365Y-178689878D02*
X162161394Y-178689878D01*
X170154600Y-185394600D02*
X173405800Y-185394600D01*
X173405800Y-185394600D02*
X173710600Y-185089800D01*
X144348200Y-182143400D02*
X145237200Y-182143400D01*
X145237200Y-182143400D02*
X146050000Y-182956200D01*
X146050000Y-182956200D02*
X146050000Y-186359800D01*
X146050000Y-186359800D02*
X146608800Y-186918600D01*
X146608800Y-186918600D02*
X147786000Y-186918600D01*
X144348200Y-179071400D02*
X144348200Y-180543400D01*
X153891190Y-180809722D02*
X150380522Y-180809722D01*
X150380522Y-180809722D02*
X149580600Y-180009800D01*
X149580600Y-180009800D02*
X149580600Y-173659800D01*
X149580600Y-173659800D02*
X147900600Y-171979800D01*
X147900600Y-171979800D02*
X147900600Y-170774800D01*
X147900600Y-169849800D02*
X147900600Y-170774800D01*
X153766043Y-180019571D02*
X150860371Y-180019571D01*
X150860371Y-180019571D02*
X150850600Y-180009800D01*
X150850600Y-180009800D02*
X150217010Y-180009800D01*
X150217010Y-180009800D02*
X150030610Y-179823400D01*
X150030610Y-179823400D02*
X150030610Y-171119800D01*
X150030610Y-171119800D02*
X149900600Y-170989790D01*
X149900600Y-170989790D02*
X149900600Y-169849800D01*
X153640895Y-179229420D02*
X150563840Y-179229420D01*
X150563840Y-179229420D02*
X150480620Y-179146200D01*
X150480620Y-179146200D02*
X150480620Y-171269780D01*
X150480620Y-171269780D02*
X150850600Y-170899800D01*
X150850600Y-170899800D02*
X151900600Y-169849800D01*
X153515748Y-178439270D02*
X152605777Y-178439270D01*
X151722806Y-170958794D02*
X153746200Y-170958794D01*
X152605777Y-178439270D02*
X152601507Y-178435000D01*
X150930630Y-171750970D02*
X151722806Y-170958794D01*
X152601507Y-178435000D02*
X150952200Y-178435000D01*
X150952200Y-178435000D02*
X150930630Y-178413430D01*
X150930630Y-178413430D02*
X150930630Y-171750970D01*
X153746200Y-170958794D02*
X153900600Y-170804394D01*
X153900600Y-170804394D02*
X153900600Y-169849800D01*
X151909206Y-171408804D02*
X152171400Y-171408804D01*
X152171400Y-171408804D02*
X152882600Y-171408804D01*
X153932600Y-171408804D02*
X152171400Y-171408804D01*
X154016215Y-171325189D02*
X153932600Y-171408804D01*
X155900600Y-170895800D02*
X155471211Y-171325189D01*
X155471211Y-171325189D02*
X154016215Y-171325189D01*
X155900600Y-169849800D02*
X155900600Y-170895800D01*
X151380640Y-171937370D02*
X151909206Y-171408804D01*
X151380640Y-177593440D02*
X151380640Y-171937370D01*
X152453710Y-177622200D02*
X151409400Y-177622200D01*
X151409400Y-177622200D02*
X151380640Y-177593440D01*
X153390600Y-177649119D02*
X152480629Y-177649119D01*
X152480629Y-177649119D02*
X152453710Y-177622200D01*
X159336822Y-173253400D02*
X159336822Y-174329285D01*
X157900600Y-169849800D02*
X157900600Y-171413400D01*
X157900600Y-171413400D02*
X159336822Y-172849622D01*
X159336822Y-172849622D02*
X159336822Y-173253400D01*
X159336822Y-175239256D02*
X159336822Y-174329285D01*
X159900600Y-169849800D02*
X159900600Y-174887735D01*
X159900600Y-174887735D02*
X160126973Y-175114108D01*
X161315400Y-171389594D02*
X161315400Y-175848875D01*
X161315400Y-175848875D02*
X161785951Y-176319426D01*
X161900600Y-169849800D02*
X161900600Y-170804394D01*
X161900600Y-170804394D02*
X161315400Y-171389594D01*
X161911099Y-177109577D02*
X162821070Y-177109577D01*
X162821070Y-177109577D02*
X163042600Y-176888047D01*
X163042600Y-176888047D02*
X163042600Y-172707800D01*
X163042600Y-172707800D02*
X165900600Y-169849800D01*
X167900600Y-169849800D02*
X166737595Y-171012805D01*
X163492610Y-177353335D02*
X162946217Y-177899728D01*
X166737595Y-171012805D02*
X165374005Y-171012805D01*
X165374005Y-171012805D02*
X163492610Y-172894200D01*
X163492610Y-172894200D02*
X163492610Y-177353335D01*
X162946217Y-177899728D02*
X162036246Y-177899728D01*
X152730200Y-185445400D02*
X149900600Y-188275000D01*
X149900600Y-188275000D02*
X149900600Y-190169800D01*
X152730200Y-183277335D02*
X152730200Y-185445400D01*
X154141485Y-182390023D02*
X153617512Y-182390023D01*
X153617512Y-182390023D02*
X152730200Y-183277335D01*
X153865098Y-185123302D02*
X151900600Y-187087800D01*
X151900600Y-187087800D02*
X151900600Y-189215206D01*
X154266633Y-183180174D02*
X153865098Y-183581709D01*
X153865098Y-183581709D02*
X153865098Y-185123302D01*
X151900600Y-189215206D02*
X151900600Y-190169800D01*
X153900600Y-190169800D02*
X153900600Y-188643800D01*
X153900600Y-188643800D02*
X155925611Y-186618789D01*
X155925611Y-186618789D02*
X155925611Y-185295463D01*
X155925611Y-185295463D02*
X155925611Y-184385492D01*
X159639000Y-188953606D02*
X159639000Y-185600646D01*
X159639000Y-185600646D02*
X160666515Y-184573131D01*
X160666515Y-184573131D02*
X160666515Y-184544578D01*
X160666515Y-184544578D02*
X160666515Y-183634607D01*
X159900600Y-190169800D02*
X159900600Y-189215206D01*
X159900600Y-189215206D02*
X159639000Y-188953606D01*
X160352399Y-186205201D02*
X161456666Y-185100934D01*
X161456666Y-185100934D02*
X161456666Y-183509459D01*
X160604200Y-189052200D02*
X160352399Y-188800399D01*
X160352399Y-188800399D02*
X160352399Y-186205201D01*
X160877412Y-189052200D02*
X160604200Y-189052200D01*
X161721800Y-189036406D02*
X160893206Y-189036406D01*
X160893206Y-189036406D02*
X160877412Y-189052200D01*
X161900600Y-190169800D02*
X161900600Y-189215206D01*
X161900600Y-189215206D02*
X161721800Y-189036406D01*
X162661984Y-181850481D02*
X162973053Y-182161550D01*
X162973053Y-182161550D02*
X162973053Y-189242253D01*
X162973053Y-189242253D02*
X163900600Y-190169800D01*
X165900600Y-190169800D02*
X165900600Y-189014600D01*
X165900600Y-189014600D02*
X165430200Y-188544200D01*
X163475361Y-181060330D02*
X162536836Y-181060330D01*
X165430200Y-188544200D02*
X163727863Y-188544200D01*
X163727863Y-188544200D02*
X163423063Y-188239400D01*
X163820164Y-181405133D02*
X163475361Y-181060330D01*
X163423063Y-188239400D02*
X163423063Y-182931337D01*
X163423063Y-182931337D02*
X163820164Y-182534236D01*
X163820164Y-182534236D02*
X163820164Y-181405133D01*
X147900600Y-190169800D02*
X147900600Y-188293800D01*
X148107400Y-188087000D02*
X149428200Y-188087000D01*
X147900600Y-188293800D02*
X148107400Y-188087000D01*
X149428200Y-188087000D02*
X152280190Y-185235010D01*
X153106367Y-181599872D02*
X154016338Y-181599872D01*
X152280190Y-185235010D02*
X152280190Y-182426049D01*
X152280190Y-182426049D02*
X153106367Y-181599872D01*
X155386069Y-175864993D02*
X155386069Y-173306069D01*
X155386069Y-173306069D02*
X155130200Y-173050200D01*
X153688941Y-175990141D02*
X152730200Y-175031400D01*
X152730200Y-175031400D02*
X152730200Y-173050200D01*
X154595918Y-175990141D02*
X153688941Y-175990141D01*
M02*
